<svg xmlns="http://www.w3.org/2000/svg" viewBox="76 147 556 384">
  <style>
    .st0{fill:#4588c8}.st1{display:none}.st2{display:inline}.st3{fill:#2f6aff}.st4{font-family:&apos;Helvetica&apos;}.st6{font-family:&apos;AvenirNext-Medium&apos;}
  </style>
  <g id="original">
    <path class="st0" d="M129.39 449.03c12.32-10.23 24.83-20.23 37.31-30.26 6.31-5.07 12.61-10.15 18.88-15.26 6.01-4.9 13.64-9.7 17.59-16.55 7.82-13.55-.59-25.38-11.56-33.46-11.4-8.4-24.52-10.57-36.93-2.82-13.26 8.27-22.75 22.03-29.46 35.88-7.18 14.82-11.7 30.77-12.01 47.31-.28 15.1 3.22 31.91 13.5 43.5 10.61 11.96 24.97 15.1 40.01 9.87 16.46-5.72 29.84-17.1 41.64-29.6 10.39-11 17.9-24.13 28.17-35.2 2.94-3.17 5.85-10.4 2.84-14.34-3.28-4.29-8.6-.06-11.12 2.65-7.23 7.8-12.72 16.67-19.28 24.98-7.13 9.03-15.42 17.69-24.95 24.21-8.95 6.12-21.74 12.31-32.62 8.05-10.89-4.26-17.36-15.16-20.14-26-5.77-22.45 1.79-48.82 16.65-66.3 7.26-8.54 16.32-12.16 26.68-6.45 3.52 1.94 7 4.36 9.94 7.11 1.37 1.29 2.65 2.74 3.75 4.26.48.67.89 1.66 1.45 2.26.07 1.06.21 1.36.42.91.53-2.26 1.63-4.29 3.29-6.1-2.57 1-5.4 4.51-7.54 6.28-2.71 2.23-5.44 4.46-8.17 6.67-5.84 4.75-11.71 9.46-17.57 14.18-11.77 9.46-23.55 18.91-35.18 28.55-3.75 3.11-7.2 9.57-5.6 14.54 1.62 5.05 6.78 3.81 10.01 1.13z"/>
    <path class="st0" d="M241.55 449.02c12.01-10.13 24.21-20.05 36.37-30 6.03-4.93 12.06-9.87 18.06-14.85 5.92-4.91 13.54-9.83 17.45-16.61 7.67-13.29-.35-25.01-11.05-33.08-10.89-8.22-23.45-10.62-35.56-3.36-13.35 8-22.74 21.94-29.4 35.69-7.16 14.76-11.6 30.72-11.9 47.19-.28 14.8 3.06 31.31 12.94 42.82 10.09 11.75 23.99 15.19 38.61 10.22 30.78-10.45 51.5-40.16 70.07-65.2 2.62-3.53 6.05-10.14 2.84-14.34-3.1-4.05-8.87-.38-11.12 2.65-13.03 17.57-26.43 37.27-44.73 49.78-8.61 5.89-20.96 11.87-31.4 7.51-10.76-4.5-16.87-15.53-19.44-26.38-5.19-21.95 2.09-47.73 16.54-64.84 7.29-8.63 16.07-11.65 26.23-5.66 3.14 1.85 6.23 4.03 8.87 6.57 1.5 1.44 3 3.09 4.11 4.85.2.32 1.01 2.13 1.23 2.41l.27 1.07c-.31-2.75.76-5.14 3.21-7.19-2.59 1.12-5.25 4.46-7.47 6.32-2.7 2.26-5.41 4.5-8.12 6.74-5.57 4.6-11.17 9.18-16.76 13.75-11.47 9.37-22.94 18.72-34.26 28.27-3.73 3.15-7.21 9.55-5.6 14.54 1.61 5.02 6.79 3.84 10.01 1.13zM619.03 293.91l.01 1.34-3.79.04.11 9.9-1.54.02-.11-9.9-3.79.04-.01-1.34 9.12-.1zM620.54 293.89l2.18-.02 3.34 9.46 3.1-9.54 2.17-.02.13 11.24-1.45.02-.08-6.63v-1.14-1.71l-3.1 9.51-1.51.02-3.35-9.44v.34c0 .28.02.7.04 1.26s.03.98.04 1.24l.08 6.63-1.45.02-.14-11.24z"/>
    <path class="st0" d="M433.11 384.5c.79-10.25-3.68-21.77-9.3-30.17-5.88-8.79-16.45-13.96-27-13.2-13.1.94-23.89 10.38-32.56 19.5-8.32 8.76-14.69 19.11-19.57 30.12-9.42 21.27-12.6 47.08-7.91 69.93 2.38 11.6 8.98 23.3 20.42 27.96 11.97 4.89 24.02.46 33.7-7.18 23.01-18.16 32.64-48.61 38.24-76.17.85-4.16-.97-9.15-5.98-8.11-5.16 1.07-8.84 7.42-9.79 12.12-3.59 17.66-8.4 35.87-20.22 49.95-5.19 6.18-12.17 11.9-20.76 10.84-9.02-1.11-15.71-8.79-18.46-17.01-5.33-15.94-3.64-36.13 1.54-51.92 4.79-14.6 14.83-32.02 29.79-38.26 18-7.5 32.85 14.73 31.63 30.59-.38 4.93 4.38 6.87 8.27 4.77 4.97-2.67 7.55-8.4 7.96-13.76zM109.58 519.8v.38c0 .13-.01.26-.02.38h-9.05c.02.48.12.93.32 1.35.2.42.47.79.8 1.1.34.31.72.55 1.16.73s.91.26 1.4.26c.77 0 1.43-.17 1.99-.5s1-.74 1.32-1.22l1.58 1.27c-.61.81-1.32 1.4-2.15 1.78-.82.38-1.74.57-2.75.57-.86 0-1.66-.14-2.4-.43s-1.37-.69-1.9-1.21c-.53-.52-.94-1.15-1.25-1.88a6.44 6.44 0 01-.46-2.45c0-.88.15-1.69.44-2.44.3-.74.71-1.38 1.24-1.91s1.15-.94 1.88-1.24c.72-.3 1.5-.44 2.33-.44.83 0 1.59.14 2.27.41.68.27 1.26.66 1.73 1.18.47.51.84 1.13 1.09 1.86.3.72.43 1.53.43 2.45zm-2.31-.92c-.02-.45-.09-.87-.23-1.26s-.34-.73-.6-1.02c-.26-.29-.59-.52-.98-.68s-.85-.25-1.38-.25c-.48 0-.93.08-1.36.25-.42.17-.79.4-1.1.68-.31.29-.57.63-.77 1.02-.2.39-.32.81-.35 1.26h6.77zM115.24 525.58h-2.26v-18.14h2.26v18.14zM130.05 519.8v.38c0 .13-.01.26-.02.38h-9.05c.02.48.12.93.32 1.35.2.42.47.79.8 1.1.34.31.72.55 1.16.73s.91.26 1.4.26c.77 0 1.43-.17 1.99-.5s1-.74 1.32-1.22l1.58 1.27c-.61.81-1.32 1.4-2.15 1.78-.82.38-1.74.57-2.75.57-.86 0-1.66-.14-2.4-.43s-1.37-.69-1.9-1.21c-.53-.52-.94-1.15-1.25-1.88a6.44 6.44 0 01-.46-2.45c0-.88.15-1.69.44-2.44.3-.74.71-1.38 1.24-1.91s1.15-.94 1.88-1.24c.72-.3 1.5-.44 2.33-.44.83 0 1.59.14 2.27.41.68.27 1.26.66 1.73 1.18.47.51.84 1.13 1.09 1.86.3.72.43 1.53.43 2.45zm-2.3-.92c-.02-.45-.09-.87-.23-1.26s-.34-.73-.6-1.02c-.26-.29-.59-.52-.98-.68s-.85-.25-1.38-.25c-.48 0-.93.08-1.36.25-.42.17-.79.4-1.1.68-.31.29-.57.63-.77 1.02-.2.39-.32.81-.35 1.26h6.77zM141.38 517.08c-.24-.37-.6-.68-1.08-.92s-.99-.37-1.54-.37c-.59 0-1.12.11-1.57.34-.46.22-.84.52-1.16.9-.32.38-.56.81-.73 1.31s-.25 1.02-.25 1.56.08 1.06.25 1.56.41.93.73 1.31.71.68 1.18.9c.46.22.99.34 1.58.34.58 0 1.1-.11 1.57-.34.47-.22.86-.53 1.16-.91l1.51 1.37c-.48.56-1.08 1-1.8 1.31-.72.31-1.54.47-2.45.47-.88 0-1.69-.14-2.44-.43a5.8 5.8 0 01-1.93-1.21c-.54-.52-.97-1.15-1.28-1.88s-.47-1.56-.47-2.47c0-.9.15-1.71.46-2.45.3-.74.73-1.37 1.27-1.9a5.52 5.52 0 011.93-1.22c.74-.29 1.55-.43 2.41-.43.8 0 1.6.16 2.39.48s1.42.78 1.88 1.39l-1.62 1.29zM151.07 516.05h-3.02v5.91c0 .69.13 1.18.38 1.47.26.29.66.44 1.22.44.21 0 .43-.02.67-.07.24-.04.46-.11.65-.2l.07 1.85a5.696 5.696 0 01-1.92.31c-1.07 0-1.89-.3-2.46-.89-.57-.59-.85-1.48-.85-2.66v-6.17h-2.18v-1.85h2.18v-3.26h2.23v3.26h3.02v1.86zM153.62 515.48c-.02-.48-.04-.9-.07-1.27h2.14c.03.29.06.62.07 1 .02.38.02.68.02.92h.07c.32-.67.79-1.21 1.4-1.62.62-.41 1.31-.61 2.08-.61.35 0 .65.03.89.1l-.1 2.09c-.32-.08-.66-.12-1.03-.12-.54 0-1.02.1-1.42.3-.4.2-.73.47-1 .8-.26.34-.46.72-.59 1.16-.13.44-.19.9-.19 1.38v5.98h-2.26v-8.93c.01-.31 0-.7-.01-1.18zM173.66 519.87c0 .88-.16 1.69-.47 2.42-.31.74-.74 1.37-1.3 1.91-.55.54-1.2.95-1.96 1.25-.75.3-1.56.44-2.42.44-.86 0-1.67-.15-2.42-.44-.75-.3-1.4-.71-1.94-1.25s-.97-1.17-1.28-1.91c-.31-.74-.47-1.54-.47-2.42s.16-1.68.47-2.41c.31-.73.74-1.36 1.28-1.88.54-.53 1.19-.94 1.94-1.24.75-.3 1.56-.44 2.42-.44.86 0 1.67.15 2.42.44.75.3 1.4.71 1.96 1.24.55.53.98 1.16 1.3 1.88.31.73.47 1.53.47 2.41zm-2.35.01c0-.54-.08-1.06-.25-1.56-.17-.49-.41-.93-.73-1.3s-.72-.67-1.19-.9-1.02-.33-1.62-.33c-.61 0-1.15.11-1.63.33-.47.22-.87.52-1.19.9-.32.38-.57.81-.73 1.3-.17.5-.25 1.01-.25 1.56 0 .54.08 1.06.25 1.56.17.5.41.93.73 1.32.32.38.72.69 1.19.91.47.22 1.02.33 1.63.33.61 0 1.15-.11 1.62-.33s.87-.53 1.19-.91.57-.82.73-1.32c.16-.5.25-1.02.25-1.56zM179.06 514.21c.03.29.06.61.07.97.02.36.02.66.02.9h.07c.14-.3.34-.59.59-.85.25-.26.53-.5.85-.7a4.296 4.296 0 012.26-.64c.74 0 1.37.12 1.9.37.53.25.97.58 1.32 1 .35.42.61.9.78 1.46.17.56.25 1.16.25 1.8v7.06h-2.26v-6.31c0-.46-.04-.9-.11-1.32-.07-.42-.2-.78-.4-1.1-.19-.32-.46-.58-.79-.77s-.77-.29-1.3-.29c-.9 0-1.63.34-2.2 1.02-.57.68-.85 1.59-.85 2.72v6.05H177v-8.93c0-.3-.01-.7-.02-1.18-.02-.48-.04-.9-.07-1.27h2.15zM193.86 510.1c0 .42-.15.76-.44 1.03-.29.27-.65.41-1.06.41s-.76-.14-1.05-.42-.43-.62-.43-1.02c0-.42.14-.76.43-1.04s.63-.42 1.05-.42.77.14 1.06.42c.3.28.44.63.44 1.04zm-.36 15.48h-2.26V514.2h2.26v11.38zM205.65 517.08c-.24-.37-.6-.68-1.08-.92s-.99-.37-1.54-.37c-.59 0-1.12.11-1.57.34-.46.22-.84.52-1.16.9-.32.38-.56.81-.73 1.31s-.25 1.02-.25 1.56.08 1.06.25 1.56.41.93.73 1.31.71.68 1.18.9c.46.22.99.34 1.58.34.58 0 1.1-.11 1.57-.34.47-.22.86-.53 1.16-.91l1.51 1.37c-.48.56-1.08 1-1.8 1.31-.72.31-1.54.47-2.45.47-.88 0-1.69-.14-2.44-.43a5.8 5.8 0 01-1.93-1.21c-.54-.52-.97-1.15-1.28-1.88s-.47-1.56-.47-2.47c0-.9.15-1.71.46-2.45.3-.74.73-1.37 1.27-1.9a5.52 5.52 0 011.93-1.22c.74-.29 1.55-.43 2.41-.43.8 0 1.6.16 2.39.48s1.42.78 1.88 1.39l-1.62 1.29zM226.65 519.8v.38c0 .13-.01.26-.02.38h-9.05c.02.48.12.93.32 1.35.2.42.47.79.8 1.1.34.31.72.55 1.16.73s.91.26 1.4.26c.77 0 1.43-.17 1.99-.5s1-.74 1.32-1.22l1.58 1.27c-.61.81-1.32 1.4-2.15 1.78-.82.38-1.74.57-2.75.57-.86 0-1.66-.14-2.4-.43s-1.37-.69-1.9-1.21c-.53-.52-.94-1.15-1.25-1.88a6.44 6.44 0 01-.46-2.45c0-.88.15-1.69.44-2.44.3-.74.71-1.38 1.24-1.91s1.15-.94 1.88-1.24c.72-.3 1.5-.44 2.33-.44.83 0 1.59.14 2.27.41.68.27 1.26.66 1.73 1.18.47.51.84 1.13 1.09 1.86.3.72.43 1.53.43 2.45zm-2.31-.92c-.02-.45-.09-.87-.23-1.26s-.34-.73-.6-1.02c-.26-.29-.59-.52-.98-.68s-.85-.25-1.38-.25c-.48 0-.93.08-1.36.25-.42.17-.79.4-1.1.68-.31.29-.57.63-.77 1.02-.2.39-.32.81-.35 1.26h6.77zM239.08 523.78c-.43.69-1.02 1.21-1.76 1.57-.74.36-1.52.54-2.34.54-.88 0-1.67-.16-2.38-.47-.7-.31-1.3-.74-1.8-1.28s-.88-1.18-1.15-1.92c-.27-.74-.41-1.52-.41-2.35s.14-1.61.41-2.34c.27-.73.66-1.36 1.16-1.91s1.11-.97 1.81-1.27c.7-.3 1.48-.46 2.33-.46.93 0 1.74.2 2.42.59.69.39 1.23.87 1.63 1.43h.05v-8.47h2.26v18.14h-2.18v-1.8h-.05zm-7.49-3.9c0 .53.08 1.04.24 1.53.16.5.4.93.72 1.32.32.38.71.69 1.18.92.46.23 1.01.35 1.63.35a3.616 3.616 0 002.78-1.23c.33-.38.6-.81.78-1.3.18-.5.28-1.01.28-1.56s-.09-1.06-.28-1.56-.44-.93-.78-1.32c-.34-.38-.74-.69-1.21-.91-.47-.22-1-.33-1.57-.33-.62 0-1.17.11-1.63.33-.46.22-.86.53-1.18.91-.32.38-.56.82-.72 1.32-.16.49-.24 1-.24 1.53zM253.5 525.58c-.03-.29-.06-.61-.07-.97-.02-.36-.02-.66-.02-.9h-.05c-.29.61-.77 1.12-1.45 1.55s-1.44.64-2.27.64c-.74 0-1.37-.12-1.91-.36-.54-.24-.98-.57-1.32-1-.34-.42-.6-.92-.77-1.48-.17-.56-.25-1.16-.25-1.8v-7.06h2.26v6.29c0 .46.04.91.11 1.33.07.42.2.8.4 1.12s.46.58.79.77.77.29 1.3.29c.91 0 1.65-.34 2.21-1.02.56-.68.84-1.59.84-2.72v-6.05h2.26v8.93c0 .3.01.7.02 1.18.02.48.04.9.07 1.27h-2.15zM267.66 517.08c-.24-.37-.6-.68-1.08-.92s-.99-.37-1.54-.37c-.59 0-1.12.11-1.57.34-.46.22-.84.52-1.16.9-.32.38-.56.81-.73 1.31s-.25 1.02-.25 1.56.08 1.06.25 1.56.41.93.73 1.31.71.68 1.18.9c.46.22.99.34 1.58.34.58 0 1.1-.11 1.57-.34.47-.22.86-.53 1.16-.91l1.51 1.37c-.48.56-1.08 1-1.8 1.31-.72.31-1.54.47-2.45.47-.88 0-1.69-.14-2.44-.43a5.8 5.8 0 01-1.93-1.21c-.54-.52-.97-1.15-1.28-1.88s-.47-1.56-.47-2.47c0-.9.15-1.71.46-2.45.3-.74.73-1.37 1.27-1.9a5.52 5.52 0 011.93-1.22c.74-.29 1.55-.43 2.41-.43.8 0 1.6.16 2.39.48s1.42.78 1.88 1.39l-1.62 1.29zM278.87 518.21c0-.85-.26-1.48-.77-1.88s-1.19-.61-2.04-.61c-.64 0-1.24.12-1.81.37s-1.04.56-1.43.95l-1.2-1.44c.56-.53 1.24-.94 2.05-1.25.81-.3 1.68-.46 2.6-.46.82 0 1.52.12 2.12.35.6.23 1.09.55 1.48.95.38.4.67.87.86 1.42s.29 1.13.29 1.75v4.97c0 .38.01.79.04 1.21.02.42.07.77.13 1.04h-2.04c-.13-.54-.19-1.09-.19-1.63h-.07c-.42.61-.94 1.08-1.57 1.42-.63.34-1.38.5-2.24.5-.45 0-.92-.06-1.4-.18-.49-.12-.93-.32-1.33-.59-.4-.27-.73-.63-1-1.08-.26-.45-.4-1-.4-1.66 0-.86.23-1.55.7-2.05.46-.5 1.07-.89 1.82-1.15.75-.26 1.6-.44 2.54-.52.94-.08 1.9-.12 2.86-.12v-.31zm-.55 1.95c-.56 0-1.14.02-1.74.07-.6.05-1.14.14-1.63.29-.49.14-.89.36-1.21.65-.32.29-.48.67-.48 1.15 0 .34.07.62.2.84s.32.41.54.55c.22.14.47.24.74.3s.55.08.84.08c1.06 0 1.87-.32 2.44-.95.57-.63.85-1.43.85-2.39v-.6h-.55zM290.37 516.05h-3.02v5.91c0 .69.13 1.18.38 1.47.26.29.66.44 1.22.44.21 0 .43-.02.67-.07.24-.04.46-.11.65-.2l.07 1.85a5.696 5.696 0 01-1.92.31c-1.07 0-1.89-.3-2.46-.89-.57-.59-.85-1.48-.85-2.66v-6.17h-2.18v-1.85h2.18v-3.26h2.23v3.26h3.02v1.86zM295.58 510.1c0 .42-.15.76-.44 1.03-.29.27-.65.41-1.06.41s-.76-.14-1.05-.42-.43-.62-.43-1.02c0-.42.14-.76.43-1.04s.63-.42 1.05-.42.77.14 1.06.42c.29.28.44.63.44 1.04zm-.36 15.48h-2.26V514.2h2.26v11.38zM310.91 519.87c0 .88-.16 1.69-.47 2.42-.31.74-.74 1.37-1.3 1.91-.55.54-1.2.95-1.96 1.25-.75.3-1.56.44-2.42.44-.86 0-1.67-.15-2.42-.44-.75-.3-1.4-.71-1.94-1.25s-.97-1.17-1.28-1.91c-.31-.74-.47-1.54-.47-2.42s.16-1.68.47-2.41c.31-.73.74-1.36 1.28-1.88.54-.53 1.19-.94 1.94-1.24.75-.3 1.56-.44 2.42-.44.86 0 1.67.15 2.42.44.75.3 1.4.71 1.96 1.24.55.53.98 1.16 1.3 1.88.32.73.47 1.53.47 2.41zm-2.35.01c0-.54-.08-1.06-.25-1.56-.17-.49-.41-.93-.73-1.3s-.72-.67-1.19-.9-1.02-.33-1.62-.33c-.61 0-1.15.11-1.63.33-.47.22-.87.52-1.19.9-.32.38-.57.81-.73 1.3-.17.5-.25 1.01-.25 1.56 0 .54.08 1.06.25 1.56.17.5.41.93.73 1.32.32.38.72.69 1.19.91.47.22 1.02.33 1.63.33.61 0 1.15-.11 1.62-.33s.87-.53 1.19-.91.57-.82.73-1.32c.17-.5.25-1.02.25-1.56zM316.31 514.21c.03.29.06.61.07.97.02.36.02.66.02.9h.07c.14-.3.34-.59.59-.85.25-.26.53-.5.85-.7a4.296 4.296 0 012.26-.64c.74 0 1.37.12 1.9.37.53.25.97.58 1.32 1 .35.42.61.9.78 1.46.17.56.25 1.16.25 1.8v7.06h-2.26v-6.31c0-.46-.04-.9-.11-1.32-.07-.42-.2-.78-.4-1.1-.19-.32-.46-.58-.79-.77s-.77-.29-1.3-.29c-.9 0-1.63.34-2.2 1.02-.57.68-.85 1.59-.85 2.72v6.05h-2.26v-8.93c0-.3-.01-.7-.02-1.18-.02-.48-.04-.9-.07-1.27h2.15zM343.79 523.78c-.43.69-1.02 1.21-1.76 1.57-.74.36-1.52.54-2.34.54-.88 0-1.67-.16-2.38-.47-.7-.31-1.3-.74-1.8-1.28s-.88-1.18-1.15-1.92c-.27-.74-.41-1.52-.41-2.35s.14-1.61.41-2.34c.27-.73.66-1.36 1.16-1.91s1.11-.97 1.81-1.27c.7-.3 1.48-.46 2.33-.46.93 0 1.74.2 2.42.59.69.39 1.23.87 1.63 1.43h.05v-8.47h2.26v18.14h-2.18v-1.8h-.05zm-7.49-3.9c0 .53.08 1.04.24 1.53.16.5.4.93.72 1.32.32.38.71.69 1.18.92.46.23 1.01.35 1.63.35a3.616 3.616 0 002.78-1.23c.33-.38.6-.81.78-1.3.18-.5.28-1.01.28-1.56s-.09-1.06-.28-1.56-.44-.93-.78-1.32c-.34-.38-.74-.69-1.21-.91-.47-.22-1-.33-1.57-.33-.62 0-1.17.11-1.63.33-.46.22-.86.53-1.18.91-.32.38-.56.82-.72 1.32-.16.49-.24 1-.24 1.53zM361.72 519.87c0 .88-.16 1.69-.47 2.42-.31.74-.74 1.37-1.3 1.91-.55.54-1.2.95-1.96 1.25-.75.3-1.56.44-2.42.44-.86 0-1.67-.15-2.42-.44-.75-.3-1.4-.71-1.94-1.25s-.97-1.17-1.28-1.91c-.31-.74-.47-1.54-.47-2.42s.16-1.68.47-2.41c.31-.73.74-1.36 1.28-1.88.54-.53 1.19-.94 1.94-1.24.75-.3 1.56-.44 2.42-.44.86 0 1.67.15 2.42.44.75.3 1.4.71 1.96 1.24.55.53.98 1.16 1.3 1.88.31.73.47 1.53.47 2.41zm-2.35.01c0-.54-.08-1.06-.25-1.56-.17-.49-.41-.93-.73-1.3s-.72-.67-1.19-.9-1.02-.33-1.62-.33c-.61 0-1.15.11-1.63.33-.47.22-.87.52-1.19.9-.32.38-.57.81-.73 1.3-.17.5-.25 1.01-.25 1.56 0 .54.08 1.06.25 1.56.17.5.41.93.73 1.32.32.38.72.69 1.19.91.47.22 1.02.33 1.63.33.61 0 1.15-.11 1.62-.33s.87-.53 1.19-.91.57-.82.73-1.32c.16-.5.25-1.02.25-1.56zM373.05 517.08c-.24-.37-.6-.68-1.08-.92-.48-.25-.99-.37-1.54-.37-.59 0-1.12.11-1.57.34-.46.22-.84.52-1.16.9-.32.38-.56.81-.73 1.31s-.25 1.02-.25 1.56.08 1.06.25 1.56.41.93.73 1.31.71.68 1.18.9c.46.22.99.34 1.58.34.58 0 1.1-.11 1.57-.34.47-.22.86-.53 1.16-.91l1.51 1.37c-.48.56-1.08 1-1.8 1.31-.72.31-1.54.47-2.45.47-.88 0-1.69-.14-2.44-.43s-1.39-.69-1.93-1.21a5.65 5.65 0 01-1.28-1.88c-.31-.74-.47-1.56-.47-2.47 0-.9.15-1.71.46-2.45.3-.74.73-1.37 1.27-1.9a5.52 5.52 0 011.93-1.22c.74-.29 1.55-.43 2.41-.43.8 0 1.6.16 2.39.48s1.42.78 1.88 1.39l-1.62 1.29zM385.19 525.58c-.03-.29-.06-.61-.07-.97-.02-.36-.02-.66-.02-.9h-.05c-.29.61-.77 1.12-1.45 1.55-.68.42-1.44.64-2.27.64-.74 0-1.37-.12-1.91-.36-.54-.24-.98-.57-1.32-1-.34-.42-.6-.92-.77-1.48-.17-.56-.25-1.16-.25-1.8v-7.06h2.26v6.29c0 .46.04.91.11 1.33s.2.8.4 1.12c.19.32.46.58.79.77s.77.29 1.3.29c.91 0 1.65-.34 2.21-1.02.56-.68.84-1.59.84-2.72v-6.05h2.26v8.93c0 .3.01.7.02 1.18.02.48.04.9.07 1.27h-2.15zM394.97 514.53c.63-.42 1.38-.64 2.24-.64.77 0 1.46.18 2.08.53.62.35 1.1.94 1.45 1.75.38-.74.92-1.3 1.61-1.69a4.51 4.51 0 012.26-.59c.74 0 1.37.12 1.9.37.53.25.97.58 1.32 1 .35.42.61.9.78 1.46.17.56.25 1.16.25 1.8v7.06h-2.26v-6.31c0-.46-.04-.9-.12-1.32s-.22-.78-.41-1.1c-.19-.32-.45-.58-.77-.77-.32-.19-.73-.29-1.22-.29-.51 0-.95.11-1.32.32-.37.22-.67.5-.9.84-.23.34-.4.73-.5 1.16-.1.43-.16.87-.16 1.32v6.14h-2.26v-6.77c0-.45-.04-.86-.12-1.22s-.22-.68-.41-.95c-.19-.26-.44-.47-.74-.62-.3-.15-.68-.23-1.13-.23-.83 0-1.52.34-2.08 1.02-.55.68-.83 1.59-.83 2.72v6.05h-2.26v-8.93c0-.3-.01-.7-.02-1.18-.02-.48-.04-.9-.07-1.27h2.14c.03.29.06.61.07.97.02.36.02.66.02.9h.07c.3-.59.76-1.11 1.39-1.53zM423.54 519.8v.38c0 .13-.01.26-.02.38h-9.05c.02.48.12.93.32 1.35s.47.79.8 1.1c.34.31.72.55 1.16.73s.91.26 1.4.26c.77 0 1.43-.17 1.99-.5.56-.34 1-.74 1.32-1.22l1.58 1.27c-.61.81-1.32 1.4-2.15 1.78-.82.38-1.74.57-2.75.57-.86 0-1.66-.14-2.4-.43s-1.37-.69-1.9-1.21c-.53-.52-.94-1.15-1.25-1.88a6.44 6.44 0 01-.46-2.45c0-.88.15-1.69.44-2.44.3-.74.71-1.38 1.24-1.91s1.15-.94 1.88-1.24c.72-.3 1.5-.44 2.33-.44.83 0 1.59.14 2.27.41.68.27 1.26.66 1.73 1.18.47.51.84 1.13 1.09 1.86.3.72.43 1.53.43 2.45zm-2.3-.92c-.02-.45-.09-.87-.23-1.26s-.34-.73-.6-1.02c-.26-.29-.59-.52-.98-.68-.39-.17-.85-.25-1.38-.25-.48 0-.93.08-1.36.25s-.79.4-1.1.68c-.31.29-.57.63-.77 1.02-.2.39-.32.81-.35 1.26h6.77zM428.94 514.21c.03.29.06.61.07.97.02.36.02.66.02.9h.07c.14-.3.34-.59.59-.85.25-.26.53-.5.85-.7s.67-.36 1.06-.47c.38-.11.78-.17 1.2-.17.74 0 1.37.12 1.9.37.53.25.97.58 1.32 1 .35.42.61.9.78 1.46.17.56.25 1.16.25 1.8v7.06h-2.26v-6.31c0-.46-.04-.9-.11-1.32-.07-.42-.2-.78-.4-1.1-.19-.32-.46-.58-.79-.77s-.77-.29-1.3-.29c-.9 0-1.63.34-2.2 1.02-.57.68-.85 1.59-.85 2.72v6.05h-2.26v-8.93c0-.3-.01-.7-.02-1.18-.02-.48-.04-.9-.07-1.27h2.15zM446.68 516.05h-3.02v5.91c0 .69.13 1.18.38 1.47s.66.44 1.22.44c.21 0 .43-.02.67-.07.24-.04.46-.11.65-.2l.07 1.85a5.696 5.696 0 01-1.92.31c-1.07 0-1.89-.3-2.46-.89-.57-.59-.85-1.48-.85-2.66v-6.17h-2.18v-1.85h2.18v-3.26h2.23v3.26h3.02v1.86zM456.33 518.21c0-.85-.26-1.48-.77-1.88s-1.19-.61-2.04-.61c-.64 0-1.24.12-1.81.37-.57.25-1.04.56-1.43.95l-1.2-1.44c.56-.53 1.24-.94 2.05-1.25.81-.3 1.68-.46 2.6-.46.82 0 1.52.12 2.12.35.6.23 1.09.55 1.48.95.38.4.67.87.86 1.42.19.54.29 1.13.29 1.75v4.97c0 .38.01.79.04 1.21.02.42.07.77.13 1.04h-2.04c-.13-.54-.19-1.09-.19-1.63h-.07c-.42.61-.94 1.08-1.57 1.42s-1.38.5-2.24.5c-.45 0-.92-.06-1.4-.18-.49-.12-.93-.32-1.33-.59-.4-.27-.73-.63-1-1.08-.26-.45-.4-1-.4-1.66 0-.86.23-1.55.7-2.05.46-.5 1.07-.89 1.82-1.15s1.6-.44 2.54-.52 1.9-.12 2.86-.12v-.31zm-.56 1.95c-.56 0-1.14.02-1.74.07-.6.05-1.14.14-1.63.29-.49.14-.89.36-1.21.65s-.48.67-.48 1.15c0 .34.07.62.2.84.14.22.32.41.54.55.22.14.47.24.74.3s.55.08.84.08c1.06 0 1.87-.32 2.44-.95.57-.63.85-1.43.85-2.39v-.6h-.55zM467.82 516.05h-3.02v5.91c0 .69.13 1.18.38 1.47s.66.44 1.22.44c.21 0 .43-.02.67-.07.24-.04.46-.11.65-.2l.07 1.85a5.696 5.696 0 01-1.92.31c-1.07 0-1.89-.3-2.46-.89-.57-.59-.85-1.48-.85-2.66v-6.17h-2.18v-1.85h2.18v-3.26h2.23v3.26h3.02v1.86zM473.03 510.1c0 .42-.15.76-.44 1.03-.29.27-.65.41-1.06.41s-.76-.14-1.05-.42a1.36 1.36 0 01-.43-1.02c0-.42.14-.76.43-1.04s.63-.42 1.05-.42.77.14 1.06.42c.29.28.44.63.44 1.04zm-.36 15.48h-2.26V514.2h2.26v11.38zM488.36 519.87c0 .88-.16 1.69-.47 2.42-.31.74-.74 1.37-1.3 1.91s-1.2.95-1.96 1.25-1.56.44-2.42.44c-.86 0-1.67-.15-2.42-.44-.75-.3-1.4-.71-1.94-1.25s-.97-1.17-1.28-1.91c-.31-.74-.47-1.54-.47-2.42s.16-1.68.47-2.41c.31-.73.74-1.36 1.28-1.88.54-.53 1.19-.94 1.94-1.24.75-.3 1.56-.44 2.42-.44.86 0 1.67.15 2.42.44.75.3 1.4.71 1.96 1.24.55.53.98 1.16 1.3 1.88.32.73.47 1.53.47 2.41zm-2.35.01c0-.54-.08-1.06-.25-1.56-.17-.49-.41-.93-.73-1.3s-.72-.67-1.19-.9c-.47-.22-1.02-.33-1.63-.33-.61 0-1.15.11-1.62.33s-.87.52-1.19.9c-.32.38-.57.81-.73 1.3-.17.5-.25 1.01-.25 1.56 0 .54.08 1.06.25 1.56.17.5.41.93.73 1.32.32.38.72.69 1.19.91s1.02.33 1.62.33c.61 0 1.15-.11 1.63-.33.47-.22.87-.53 1.19-.91s.57-.82.73-1.32c.17-.5.25-1.02.25-1.56zM493.76 514.21c.03.29.06.61.07.97.02.36.02.66.02.9h.07c.14-.3.34-.59.59-.85.25-.26.53-.5.85-.7s.67-.36 1.06-.47c.38-.11.78-.17 1.2-.17.74 0 1.37.12 1.9.37.53.25.97.58 1.32 1 .35.42.61.9.78 1.46.17.56.25 1.16.25 1.8v7.06h-2.26v-6.31c0-.46-.04-.9-.11-1.32-.07-.42-.2-.78-.4-1.1-.19-.32-.46-.58-.79-.77s-.77-.29-1.3-.29c-.9 0-1.63.34-2.2 1.02-.57.68-.85 1.59-.85 2.72v6.05h-2.26v-8.93c0-.3-.01-.7-.02-1.18-.02-.48-.04-.9-.07-1.27h2.15zM518.32 517.08c-.26-.42-.62-.76-1.08-1.02-.46-.26-.98-.4-1.56-.4-.26 0-.51.03-.77.08-.26.06-.48.14-.68.26-.2.12-.36.27-.48.46-.12.18-.18.41-.18.68 0 .48.22.84.65 1.07.43.23 1.08.44 1.94.64.54.13 1.05.28 1.51.46.46.18.87.4 1.21.66.34.26.61.58.8.95.19.37.29.8.29 1.3 0 .67-.13 1.24-.38 1.7-.26.46-.6.84-1.02 1.14s-.91.51-1.45.64-1.1.19-1.68.19c-.86 0-1.71-.17-2.53-.5s-1.51-.85-2.05-1.54l1.61-1.37c.3.45.72.82 1.26 1.13s1.12.46 1.76.46c.29 0 .56-.03.83-.08.26-.06.5-.15.72-.28s.39-.3.52-.5c.13-.21.19-.47.19-.79 0-.53-.25-.92-.76-1.18s-1.24-.5-2.22-.72c-.38-.1-.77-.21-1.16-.35-.39-.14-.75-.32-1.07-.56-.32-.24-.58-.54-.78-.9-.2-.36-.3-.8-.3-1.33 0-.61.12-1.13.37-1.57.25-.44.57-.8.97-1.08s.86-.49 1.37-.62c.51-.14 1.04-.2 1.58-.2.82 0 1.6.16 2.36.48s1.35.78 1.76 1.39l-1.55 1.3zM527.39 523.13h.05l3.14-8.93h2.4l-5.52 14.06c-.19.48-.4.91-.62 1.28-.22.38-.49.7-.79.96-.3.26-.66.47-1.07.61-.41.14-.89.22-1.45.22-.24 0-.48-.01-.73-.04-.25-.02-.5-.07-.76-.13l.22-1.99c.38.13.76.19 1.13.19.59 0 1.03-.16 1.32-.49s.55-.8.79-1.4l.72-1.9-4.87-11.38h2.52l3.52 8.94zM541.55 517.08c-.26-.42-.62-.76-1.08-1.02-.46-.26-.98-.4-1.56-.4-.26 0-.51.03-.77.08-.26.06-.48.14-.68.26-.2.12-.36.27-.48.46-.12.18-.18.41-.18.68 0 .48.22.84.65 1.07.43.23 1.08.44 1.94.64.54.13 1.05.28 1.51.46.46.18.87.4 1.21.66.34.26.61.58.8.95.19.37.29.8.29 1.3 0 .67-.13 1.24-.38 1.7-.26.46-.6.84-1.02 1.14s-.91.51-1.45.64-1.1.19-1.68.19c-.86 0-1.71-.17-2.53-.5s-1.51-.85-2.05-1.54l1.61-1.37c.3.45.72.82 1.26 1.13s1.12.46 1.76.46c.29 0 .56-.03.83-.08.26-.06.5-.15.72-.28s.39-.3.52-.5c.13-.21.19-.47.19-.79 0-.53-.25-.92-.76-1.18s-1.24-.5-2.22-.72c-.38-.1-.77-.21-1.16-.35-.39-.14-.75-.32-1.07-.56-.32-.24-.58-.54-.78-.9-.2-.36-.3-.8-.3-1.33 0-.61.12-1.13.37-1.57.25-.44.57-.8.97-1.08s.86-.49 1.37-.62c.51-.14 1.04-.2 1.58-.2.82 0 1.6.16 2.36.48s1.35.78 1.76 1.39l-1.55 1.3zM551.87 516.05h-3.02v5.91c0 .69.13 1.18.38 1.47s.66.44 1.22.44c.21 0 .43-.02.67-.07.24-.04.46-.11.65-.2l.07 1.85a5.696 5.696 0 01-1.92.31c-1.07 0-1.89-.3-2.46-.89-.57-.59-.85-1.48-.85-2.66v-6.17h-2.18v-1.85h2.18v-3.26h2.23v3.26h3.02v1.86zM565.07 519.8v.38c0 .13-.01.26-.02.38H556c.02.48.12.93.32 1.35s.47.79.8 1.1c.34.31.72.55 1.16.73s.91.26 1.4.26c.77 0 1.43-.17 1.99-.5.56-.34 1-.74 1.32-1.22l1.58 1.27c-.61.81-1.32 1.4-2.15 1.78-.82.38-1.74.57-2.75.57-.86 0-1.66-.14-2.4-.43s-1.37-.69-1.9-1.21c-.53-.52-.94-1.15-1.25-1.88a6.44 6.44 0 01-.46-2.45c0-.88.15-1.69.44-2.44.3-.74.71-1.38 1.24-1.91s1.15-.94 1.88-1.24c.72-.3 1.5-.44 2.33-.44.83 0 1.59.14 2.27.41.68.27 1.26.66 1.73 1.18.47.51.84 1.13 1.09 1.86.3.72.43 1.53.43 2.45zm-2.31-.92c-.02-.45-.09-.87-.23-1.26s-.34-.73-.6-1.02c-.26-.29-.59-.52-.98-.68-.39-.17-.85-.25-1.38-.25-.48 0-.93.08-1.36.25s-.79.4-1.1.68c-.31.29-.57.63-.77 1.02-.2.39-.32.81-.35 1.26h6.77zM572.01 514.53c.63-.42 1.38-.64 2.24-.64.77 0 1.46.18 2.08.53.62.35 1.1.94 1.45 1.75.38-.74.92-1.3 1.61-1.69a4.51 4.51 0 012.26-.59c.74 0 1.37.12 1.9.37.53.25.97.58 1.32 1 .35.42.61.9.78 1.46.17.56.25 1.16.25 1.8v7.06h-2.26v-6.31c0-.46-.04-.9-.12-1.32s-.22-.78-.41-1.1c-.19-.32-.45-.58-.77-.77-.32-.19-.73-.29-1.22-.29-.51 0-.95.11-1.32.32-.37.22-.67.5-.9.84-.23.34-.4.73-.5 1.16-.1.43-.16.87-.16 1.32v6.14h-2.26v-6.77c0-.45-.04-.86-.12-1.22s-.22-.68-.41-.95c-.19-.26-.44-.47-.74-.62-.3-.15-.68-.23-1.13-.23-.83 0-1.52.34-2.08 1.02-.55.68-.83 1.59-.83 2.72v6.05h-2.26v-8.93c0-.3-.01-.7-.02-1.18-.02-.48-.04-.9-.07-1.27h2.14c.03.29.06.61.07.97.02.36.02.66.02.9h.07c.3-.59.76-1.11 1.39-1.53z"/>
    <g>
      <path class="st0" d="M456.89 467.5c0 9.2 13.72 15.98 21.17 18.84 9.94 3.81 20.53 5.52 31.14 5.71 18.86.33 40.67-2.8 56.64-13.6 22.18-15 36.83-40.48 42.26-66.36 2.66-12.66 2.92-25.78.55-38.5-2.66-14.25-9.9-27.23-18.66-38.61-6.25-8.11-13.53-15.34-21.05-22.26-6.26-5.76-14.45-15.3-23.15-8.55 2.12 4.56 4.23 9.12 6.35 13.68 21.87-23.99 31.13-56.8 21.23-88.08-7.98-25.22-24.74-46.92-46.71-61.57-21.96-14.64-49.04-22.09-75.39-20.68-28.03 1.51-54.47 12.58-76.38 29.94-25.45 20.16-43.77 48.62-51.53 80.12 4.95-3.5 9.91-7 14.86-10.5-16.81-18.61-42.51-25.66-66.88-21.18-26.76 4.92-48.83 25.07-60.52 49.07-7.02 14.42-10.92 29.86-11.13 45.92 5.03-4.33 10.06-8.67 15.09-13-19.26-24.24-54.07-23.21-79.91-11.82-30.32 13.37-52.77 42.98-58.03 75.63-2.78 17.26-.63 34.99 6.35 51.01 4.66 10.69 18.99-5.67 15.61-13.42-9.98-22.91-9.56-50 5.56-70.51 13.69-18.57 37.97-31.48 61.35-30.22 12.82.7 26.95 6.05 35.11 16.32 6.32 7.96 15.02-7.87 15.09-13 .33-25.65 13.76-50.92 37.79-61.63 23.12-10.3 53.42-5.15 70.56 13.83 6.1 6.75 13.64-5.52 14.86-10.5 10.97-44.5 52.1-78.92 97.87-84.86 46.46-6.04 95.18 19.14 115.67 61.47 5.79 11.97 9.92 25.98 8.62 39.37-1.36 14-8.08 26.35-17.43 36.6-2.85 3.13-5.35 9.38-3.25 13.45 2.15 4.17 6.57 2.58 9.6.23.06-.05.13-.1.19-.15-1.37.76-2.74 1.52-4.12 2.28-1.02.37-2.86-.96-.65.48 1.03.67 2.04 1.31 3.03 2.04 3.03 2.25 5.87 4.79 8.62 7.36 4.92 4.6 9.8 9.37 14.2 14.49 15 17.44 24.77 37.86 22.24 61.28-2.12 19.7-11.01 38.18-26.27 50.7-.72.59-1.46 1.16-2.2 1.73-3.44 2.7 1.4-.77-1.09.77-1.25.77-2.52 1.5-3.82 2.17-3.53 1.81-6.13 2.74-10.1 3.94-7.98 2.41-16.32 3.92-24.64 4.38-18.12 1.01-40.87-1.17-53.62-15.79.38 1.33.76 2.66 1.13 3.99v-1c0-4.83-4.14-7-8.27-4.77-4.66 2.51-7.94 8.51-7.94 13.76z"/>
    </g>
    <g>
      <path class="st0" d="M463.87 225.34c-13.9 46.43-26.14 93.42-38.8 140.2-5.97 22.06-11.94 44.11-17.67 66.24-2.53 9.79-5.03 19.56-5.58 29.71-.44 8.11.62 17.84 6.62 23.9 9.1 9.18 20.23 2.3 27.51-5.46 7.84-8.36 12.33-18.97 17.1-29.22 5.57-11.97 11.36-23.84 16.99-35.78 11.68-24.76 23.45-49.47 35.09-74.25 1.69-3.61 1.63-10.15-3.26-10.96-5.26-.87-9.23 5.88-11 9.63-8 16.95-3.25 32.87 6.59 47.79 9.44 14.3 20.93 27.05 22.57 44.91 1.31 14.3-3.96 24.42-16.29 31.63-5.47 3.2-9.35 4.03-15.53 1.78-6.1-2.23-12.09-5.89-16.23-10.94-6.41-7.83-19.48 10.25-13.96 17 7.09 8.66 19.47 16.23 30.98 16.01 12.63-.24 25.92-11.62 33.59-20.79 9.95-11.9 14.8-27.38 13.71-42.84-1.11-15.81-7.65-29.61-16.78-42.33-4.85-6.75-10.01-13.38-13.59-20.93-3.35-7.07-4.18-12.81-.8-19.95-4.75-.44-9.51-.89-14.26-1.33-9.56 20.35-19.26 40.65-28.85 60.99-8.99 19.07-17.47 38.54-27.13 57.28-2.22 4.3-7.38 15.71-13.3 9.94-4.62-4.5-3.97-12.83-3.15-18.6 1.12-7.87 3.29-15.58 5.28-23.26 12.23-47.04 25.12-93.91 38.04-140.76 3.35-12.16 6.72-24.32 10.13-36.46.36-1.29.73-2.59 1.09-3.88.21-.75 1.32-4.65.48-1.7.62-2.17 1.23-4.33 1.85-6.5.93-3.24 1.86-6.48 2.83-9.72 1.12-3.75 2.03-10.08-3.26-10.96-4.81-.81-9.85 5.72-11.01 9.61z"/>
    </g>
  </g>
  <g id="color" class="st1">
    <g class="st2">
      <path class="st3" d="M169.39 411.03c12.32-10.23 24.83-20.23 37.31-30.26 6.31-5.07 12.61-10.15 18.88-15.26 6.01-4.9 13.64-9.7 17.59-16.55 7.82-13.55-.59-25.38-11.56-33.46-11.4-8.4-24.52-10.57-36.93-2.82-13.26 8.27-22.75 22.03-29.46 35.88-7.18 14.82-11.7 30.77-12.01 47.31-.28 15.1 3.22 31.91 13.5 43.5 10.61 11.96 24.97 15.1 40.01 9.87 16.46-5.72 29.84-17.1 41.64-29.6 10.39-11 17.9-24.13 28.17-35.2 2.94-3.17 5.85-10.4 2.84-14.34-3.28-4.29-8.6-.06-11.12 2.65-7.23 7.8-12.72 16.67-19.28 24.98-7.13 9.03-15.42 17.69-24.95 24.21-8.95 6.12-21.74 12.31-32.62 8.05-10.89-4.26-17.36-15.16-20.14-26-5.77-22.45 1.79-48.82 16.65-66.3 7.26-8.54 16.32-12.16 26.68-6.45 3.52 1.94 7 4.36 9.94 7.11 1.37 1.29 2.65 2.74 3.75 4.26.48.67.89 1.66 1.45 2.26.07 1.06.21 1.36.42.91.53-2.26 1.63-4.29 3.29-6.1-2.57 1-5.4 4.51-7.54 6.28-2.71 2.23-5.44 4.46-8.17 6.67-5.84 4.75-11.71 9.46-17.57 14.18-11.77 9.46-23.55 18.91-35.18 28.55-3.75 3.11-7.2 9.57-5.6 14.54 1.62 5.05 6.78 3.81 10.01 1.13z"/>
    </g>
    <g class="st2">
      <path class="st3" d="M281.55 411.02c12.01-10.13 24.21-20.05 36.37-30 6.03-4.93 12.06-9.87 18.06-14.85 5.92-4.91 13.54-9.83 17.45-16.61 7.67-13.29-.35-25.01-11.05-33.08-10.89-8.22-23.45-10.62-35.56-3.36-13.35 8-22.74 21.94-29.4 35.69-7.16 14.76-11.6 30.72-11.9 47.19-.28 14.8 3.06 31.31 12.94 42.82 10.09 11.75 23.99 15.19 38.61 10.22 30.78-10.45 51.5-40.16 70.07-65.2 2.62-3.53 6.05-10.14 2.84-14.34-3.1-4.05-8.87-.38-11.12 2.65-13.03 17.57-26.43 37.27-44.73 49.78-8.61 5.89-20.96 11.87-31.4 7.51-10.76-4.5-16.87-15.53-19.44-26.38-5.19-21.95 2.09-47.73 16.54-64.84 7.29-8.63 16.07-11.65 26.23-5.66 3.14 1.85 6.23 4.03 8.87 6.57 1.5 1.44 3 3.09 4.11 4.85.2.32 1.01 2.13 1.23 2.41l.27 1.07c-.31-2.75.76-5.14 3.21-7.19-2.59 1.12-5.25 4.46-7.47 6.32-2.7 2.26-5.41 4.5-8.12 6.74-5.57 4.6-11.17 9.18-16.76 13.75-11.47 9.37-22.94 18.72-34.26 28.27-3.73 3.15-7.21 9.55-5.6 14.54 1.61 5.02 6.79 3.84 10.01 1.13z"/>
    </g>
    <text transform="rotate(-.647 23974.57 -57368.34)" class="st2 st4" font-size="15.665">
      TM
    </text>
    <g class="st2">
      <path class="st3" d="M473.11 346.5c.79-10.25-3.68-21.77-9.3-30.17-5.88-8.79-16.45-13.96-27-13.2-13.1.94-23.89 10.38-32.56 19.5-8.32 8.76-14.69 19.11-19.57 30.12-9.42 21.27-12.6 47.08-7.91 69.93 2.38 11.6 8.98 23.3 20.42 27.96 11.97 4.89 24.02.46 33.7-7.18 23.01-18.16 32.64-48.61 38.24-76.17.85-4.16-.97-9.15-5.98-8.11-5.16 1.07-8.84 7.42-9.79 12.12-3.59 17.66-8.4 35.87-20.22 49.95-5.19 6.18-12.17 11.9-20.76 10.84-9.02-1.11-15.71-8.79-18.46-17.01-5.33-15.94-3.64-36.13 1.54-51.92 4.79-14.6 14.83-32.02 29.79-38.26 18-7.5 32.85 14.73 31.63 30.59-.38 4.93 4.38 6.87 8.27 4.77 4.97-2.67 7.55-8.4 7.96-13.76z"/>
    </g>
    <text transform="translate(137.002 487.58)" class="st2 st6" font-size="24">
      electronic education documentation system
    </text>
    <g class="st2">
      <path class="st3" d="M496.89 429.5c0 9.2 13.72 15.98 21.17 18.84 9.94 3.81 20.53 5.52 31.14 5.71 18.86.33 40.67-2.8 56.64-13.6 22.18-15 36.83-40.48 42.26-66.36 2.66-12.66 2.92-25.78.55-38.5-2.66-14.25-9.9-27.23-18.66-38.61-6.25-8.11-13.53-15.34-21.05-22.26-6.26-5.76-14.45-15.3-23.15-8.55 2.12 4.56 4.23 9.12 6.35 13.68 21.87-23.99 31.13-56.8 21.23-88.08-7.98-25.22-24.74-46.92-46.71-61.57-21.96-14.64-49.04-22.09-75.39-20.68-28.03 1.51-54.47 12.58-76.38 29.94-25.45 20.16-43.77 48.62-51.53 80.12 4.95-3.5 9.91-7 14.86-10.5-16.81-18.61-42.51-25.66-66.88-21.18-26.76 4.92-48.83 25.07-60.52 49.07-7.02 14.42-10.92 29.86-11.13 45.92 5.03-4.33 10.06-8.67 15.09-13-19.26-24.24-54.07-23.21-79.91-11.82-30.32 13.37-52.77 42.98-58.03 75.63-2.78 17.26-.63 34.99 6.35 51.01 4.66 10.69 18.99-5.67 15.61-13.42-9.98-22.91-9.56-50 5.56-70.51 13.69-18.57 37.97-31.48 61.35-30.22 12.82.7 26.95 6.05 35.11 16.32 6.32 7.96 15.02-7.87 15.09-13 .33-25.65 13.76-50.92 37.79-61.63 23.12-10.3 53.42-5.15 70.56 13.83 6.1 6.75 13.64-5.52 14.86-10.5 10.97-44.5 52.1-78.92 97.87-84.86 46.46-6.04 95.18 19.14 115.67 61.47 5.79 11.97 9.92 25.98 8.62 39.37-1.36 14-8.08 26.35-17.43 36.6-2.85 3.13-5.35 9.38-3.25 13.45 2.15 4.17 6.57 2.58 9.6.23.06-.05.13-.1.19-.15-1.37.76-2.74 1.52-4.12 2.28-1.02.37-2.86-.96-.65.48 1.03.67 2.04 1.31 3.03 2.04 3.03 2.25 5.87 4.79 8.62 7.36 4.92 4.6 9.8 9.37 14.2 14.49 15 17.44 24.77 37.86 22.24 61.28-2.12 19.7-11.01 38.18-26.27 50.7-.72.59-1.46 1.16-2.2 1.73-3.44 2.7 1.4-.77-1.09.77-1.25.77-2.52 1.5-3.82 2.17-3.53 1.81-6.13 2.74-10.1 3.94-7.98 2.41-16.32 3.92-24.64 4.38-18.12 1.01-40.87-1.17-53.62-15.79.38 1.33.76 2.66 1.13 3.99v-1c0-4.83-4.14-7-8.27-4.77-4.66 2.51-7.94 8.51-7.94 13.76z"/>
    </g>
    <g class="st2">
      <path class="st3" d="M503.87 187.34c-13.9 46.43-26.14 93.42-38.8 140.2-5.97 22.06-11.94 44.11-17.67 66.24-2.53 9.79-5.03 19.56-5.58 29.71-.44 8.11.62 17.84 6.62 23.9 9.1 9.18 20.23 2.3 27.51-5.46 7.84-8.36 12.33-18.97 17.1-29.22 5.57-11.97 11.36-23.84 16.99-35.78 11.68-24.76 23.45-49.47 35.09-74.25 1.69-3.61 1.63-10.15-3.26-10.96-5.26-.87-9.23 5.88-11 9.63-8 16.95-3.25 32.87 6.59 47.79 9.44 14.3 20.93 27.05 22.57 44.91 1.31 14.3-3.96 24.42-16.29 31.63-5.47 3.2-9.35 4.03-15.53 1.78-6.1-2.23-12.09-5.89-16.23-10.94-6.41-7.83-19.48 10.25-13.96 17 7.09 8.66 19.47 16.23 30.98 16.01 12.63-.24 25.92-11.62 33.59-20.79 9.95-11.9 14.8-27.38 13.71-42.84-1.11-15.81-7.65-29.61-16.78-42.33-4.85-6.75-10.01-13.38-13.59-20.93-3.35-7.07-4.18-12.81-.8-19.95-4.75-.44-9.51-.89-14.26-1.33-9.56 20.35-19.26 40.65-28.85 60.99-8.99 19.07-17.47 38.54-27.13 57.28-2.22 4.3-7.38 15.71-13.3 9.94-4.62-4.5-3.97-12.83-3.15-18.6 1.12-7.87 3.29-15.58 5.28-23.26 12.23-47.04 25.12-93.91 38.04-140.76 3.35-12.16 6.72-24.32 10.13-36.46.36-1.29.73-2.59 1.09-3.88.21-.75 1.32-4.65.48-1.7.61-2.17 1.23-4.33 1.85-6.5.93-3.24 1.86-6.48 2.83-9.72 1.12-3.75 2.03-10.08-3.26-10.96-4.81-.81-9.85 5.72-11.01 9.61z"/>
    </g>
  </g>
  <g id="just_text" class="st1">
    <path d="M169.69 412.07c12.32-10.23 24.83-20.23 37.31-30.26 6.31-5.07 12.61-10.15 18.88-15.26 6.23-5.09 13.98-10.04 18.08-17.14 8.21-14.22.06-26.63-11.59-35.21-11.63-8.56-25.07-10.64-37.7-2.76-13.57 8.47-23.34 22.48-30.22 36.67-7.35 15.15-12 31.44-12.31 48.36-.29 15.26 3.26 32.32 13.65 44.03 10.78 12.15 25.39 15.4 40.68 10.09 16.8-5.84 30.41-17.41 42.45-30.17 10.39-11 17.9-24.13 28.17-35.2 3.38-3.65 6.57-11.71 3.21-16.25-3.64-4.93-9.81 0-12.6 3.01-11.47 12.38-19.6 27.23-31.92 38.93-11.6 11.01-31.02 25.54-47.38 15.91-16.21-9.55-19.74-31.83-17.19-48.93 2.37-15.91 9.52-34.47 22.42-44.41 7.62-5.86 15.43-4.16 23.1.8 2.95 1.91 5.83 4.05 8.24 6.61 1.28 1.36 2.35 2.82 3.38 4.37 1.34 2.01.06 1.36.89-.42 1.13-1.96 2.26-3.91 3.39-5.87.85-.56.7-.39-.45.51l-1.95 1.62c-1.32 1.09-2.64 2.19-3.96 3.28-2.94 2.42-5.88 4.82-8.83 7.22-5.84 4.75-11.71 9.46-17.57 14.18-11.77 9.46-23.55 18.91-35.18 28.55-4.32 3.58-8.06 10.79-6.35 16.48 1.74 5.77 7.76 4.24 11.35 1.26z"/>
    <path d="M281.84 412.06c12.01-10.13 24.21-20.05 36.37-30 6.03-4.93 12.06-9.87 18.06-14.85 6.15-5.1 13.88-10.17 17.94-17.21 8.06-13.96.29-26.25-11.08-34.83-11.11-8.39-23.99-10.69-36.33-3.3-13.67 8.19-23.33 22.4-30.16 36.47-7.33 15.1-11.89 31.39-12.21 48.24-.28 14.96 3.1 31.71 13.1 43.36 10.25 11.94 24.41 15.49 39.29 10.44 31.13-10.57 52.09-40.43 70.87-65.76 3.01-4.06 6.79-11.41 3.21-16.25-3.44-4.66-10.11-.36-12.6 3.01-10.14 13.67-20.31 27.78-32.62 39.6-11.04 10.6-29.68 24.82-45.38 15.53-15.47-9.16-19.15-30.46-17.01-46.92 2.07-15.92 8.96-35.05 21.79-45.21 7.22-5.72 14.63-4.2 22 .55 2.79 1.8 5.53 3.84 7.84 6.24 1.4 1.45 2.95 3.14 3.84 4.97 1.53 3.15-.28 1.53.75-.71 1.13-1.96 2.26-3.91 3.39-5.87.99-1.34-1.26 1.22-1.67 1.57-1.52 1.3-3.06 2.58-4.59 3.86-2.69 2.25-5.39 4.5-8.1 6.73-5.8 4.79-11.62 9.55-17.45 14.31-11.47 9.37-22.94 18.72-34.26 28.27-4.3 3.62-8.07 10.76-6.35 16.48 1.74 5.76 7.79 4.29 11.36 1.28z"/>
    <text transform="rotate(-.647 25841.162 -50986.111)" class="st2 st4" font-size="12">
      TM
    </text>
    <path d="M474.19 345.9c.8-10.42-3.74-22.16-9.45-30.7-5.97-8.93-16.7-14.18-27.41-13.44-13.54.93-24.68 10.66-33.62 20.09-8.5 8.96-14.98 19.56-19.97 30.81-9.56 21.57-12.76 47.75-8 70.92 2.41 11.74 9.14 23.63 20.71 28.37 12.35 5.05 24.77.45 34.74-7.43 23.41-18.5 33.29-49.4 39-77.48.94-4.6-1.09-10.53-6.78-9.19-5.86 1.38-9.99 8.28-11.1 13.74-3.57 17.55-8.34 35.34-19.72 48.91-4.93 5.88-11.51 11.25-19.69 10.25-8.75-1.08-15.27-8.56-17.93-16.53-5.23-15.65-3.49-35.87 1.45-50.93 2.51-7.66 5.75-14.51 9.85-20.07 4.83-6.55 11.18-13.85 19.01-17.04 17.45-7.09 31.7 14.72 30.53 29.96-.43 5.58 4.97 7.79 9.37 5.41 5.63-3.08 8.55-9.57 9.01-15.65z"/>
    <text transform="translate(165.87 481.078)" class="st2 st6" font-size="19.314">
      electronic education documentation system
    </text>
    <path d="M502.92 187.25c-13.94 46.55-26.21 93.65-38.9 140.56-5.97 22.06-11.94 44.11-17.67 66.23-2.56 9.9-5.06 19.77-5.61 30.04-.45 8.27.66 18.25 6.78 24.43 9.58 9.68 21.34 2.37 28.99-5.82 8.02-8.57 12.62-19.41 17.5-29.91 5.5-11.83 11.37-23.87 16.99-35.78 11.68-24.76 23.45-49.47 35.09-74.25 1.83-3.89 1.93-11.78-3.7-12.42-6.08-.68-10.35 6.42-12.47 10.91-8.18 17.34-3.46 33.75 6.61 49.01 9.18 13.92 20.38 26.23 22.33 43.54.43 3.79.48 7.7-.17 11.46-.39 2.23-1.46 5.89-1.94 6.9-2.41 5.09-6.03 9.26-11.47 12.73-5.36 3.42-9.76 4.58-15.97 2.54-6.18-2.03-12.11-6.01-16.2-11.03-7.24-8.89-22.06 11.6-15.82 19.26 7.43 9.12 19.83 16.8 31.95 16.18 13.45-.68 26.84-12 34.53-22.31 9.66-12.96 14.97-28.84 13.57-45.1-1.35-15.7-7.77-29.35-16.87-42.02-4.9-6.83-10.22-13.55-13.75-21.24-3.05-6.65-3.76-11.77-.62-18.42-5.39-.5-10.78-1-16.17-1.51-9.56 20.35-19.26 40.65-28.85 60.99-8.83 18.73-17.99 39.53-26.96 56.91-2.01 3.89-3.19 6.4-5.98 9.22.25-.25-1.79 1.6-2.23 1.72 1.14-.3-.7-.08-.99-.17-.84-.25-1.77-.92-2.4-1.51-4.52-4.27-3.75-12.66-3.03-17.74 1.12-7.87 3.29-15.58 5.28-23.26 12.23-47.04 25.12-93.91 38.04-140.76 3.35-12.16 6.72-24.32 10.13-36.46.36-1.29.73-2.59 1.09-3.88.25-.9 1.43-5.02.38-1.34.62-2.17 1.23-4.33 1.85-6.5.93-3.24 1.86-6.48 2.83-9.72 1.2-4.02 2.36-11.74-3.7-12.42-5.53-.6-11.09 6.31-12.47 10.94z"/>
  </g>
  <g id="could" class="st1">
    <path d="M496.89 429.5c0 9.39 14.11 16.2 21.71 19.04 10.18 3.8 21 5.45 31.85 5.52 20.08.14 42.23-3.71 58.67-15.94 21.59-16.06 35.81-42.64 39.9-68.97 4.44-28.59-3.87-55.94-23.26-77.45-5.38-5.96-11.23-11.56-17.13-16.99-6.2-5.71-14.18-15.23-22.82-8.54 2.12 4.56 4.23 9.12 6.35 13.68 21.87-23.99 31.13-56.8 21.23-88.08-7.98-25.22-24.74-46.92-46.71-61.57-21.96-14.64-49.04-22.09-75.39-20.68-28.03 1.51-54.47 12.58-76.38 29.94-25.45 20.16-43.77 48.62-51.53 80.12 4.95-3.5 9.91-7 14.86-10.5-16.81-18.61-42.51-25.66-66.88-21.18-26.76 4.92-48.83 25.07-60.52 49.07-7.02 14.42-10.92 29.86-11.13 45.92 5.03-4.33 10.06-8.67 15.09-13-19.26-24.24-54.07-23.21-79.91-11.82-30.32 13.37-52.77 42.98-58.03 75.63-2.78 17.26-.63 34.99 6.35 51.01 4.66 10.69 18.99-5.67 15.61-13.42-9.98-22.91-9.56-50 5.56-70.51 13.69-18.57 37.97-31.48 61.35-30.22 12.82.7 26.95 6.05 35.11 16.32 6.32 7.96 15.02-7.87 15.09-13 .33-25.65 13.76-50.92 37.79-61.63 23.12-10.3 53.42-5.15 70.56 13.83 6.1 6.75 13.64-5.52 14.86-10.5 10.97-44.5 52.1-78.92 97.87-84.86 46.46-6.04 95.18 19.14 115.67 61.47 5.79 11.97 9.92 25.98 8.62 39.37-1.36 14-8.08 26.35-17.43 36.6-2.85 3.13-5.35 9.38-3.25 13.45 2.15 4.18 6.57 2.58 9.6.23.06-.04.12-.09.17-.13-1.37.76-2.74 1.52-4.12 2.28-1.11.4-2.94-1.04-.91.42.91.65 1.89 1.22 2.79 1.89 2.79 2.07 5.4 4.4 7.95 6.75 4.98 4.59 9.83 9.39 14.46 14.33 14.91 15.93 24.3 35.57 23.49 57.64-.72 19.68-9.1 39.44-23.41 52.54-2.06 1.88-4.21 3.72-6.5 5.33 1.78-1.25-1.66.95-2.2 1.25-3.47 1.93-6.11 2.98-9.64 4.14-8.2 2.69-16.85 4.36-25.46 4.95-18.43 1.26-41.86-.82-54.84-15.72.38 1.33.76 2.66 1.13 3.99v-1c0-4.83-4.14-7-8.27-4.77-4.69 2.52-7.97 8.52-7.97 13.77z"/>
  </g>
</svg>
