<?xml version="1.0" encoding="UTF-8" standalone="no"?>
<!DOCTYPE svg PUBLIC "-//W3C//DTD SVG 1.1//EN" "http://www.w3.org/Graphics/SVG/1.1/DTD/svg11.dtd">
<svg width="100%" height="100%" viewBox="0 0 567 392" version="1.1" xmlns="http://www.w3.org/2000/svg" xmlns:xlink="http://www.w3.org/1999/xlink" xml:space="preserve" xmlns:serif="http://www.serif.com/" style="fill-rule:evenodd;clip-rule:evenodd;stroke-linejoin:round;stroke-miterlimit:2;">
    <g id="original" transform="matrix(1,0,0,1,-70,-142)">
        <g>
            <path d="M129.39,449.03C141.71,438.8 154.22,428.8 166.7,418.77C173.01,413.7 179.31,408.62 185.58,403.51C191.59,398.61 199.22,393.81 203.17,386.96C210.99,373.41 202.58,361.58 191.61,353.5C180.21,345.1 167.09,342.93 154.68,350.68C141.42,358.95 131.93,372.71 125.22,386.56C118.04,401.38 113.52,417.33 113.21,433.87C112.93,448.97 116.43,465.78 126.71,477.37C137.32,489.33 151.68,492.47 166.72,487.24C183.18,481.52 196.56,470.14 208.36,457.64C218.75,446.64 226.26,433.51 236.53,422.44C239.47,419.27 242.38,412.04 239.37,408.1C236.09,403.81 230.77,408.04 228.25,410.75C221.02,418.55 215.53,427.42 208.97,435.73C201.84,444.76 193.55,453.42 184.02,459.94C175.07,466.06 162.28,472.25 151.4,467.99C140.51,463.73 134.04,452.83 131.26,441.99C125.49,419.54 133.05,393.17 147.91,375.69C155.17,367.15 164.23,363.53 174.59,369.24C178.11,371.18 181.59,373.6 184.53,376.35C185.9,377.64 187.18,379.09 188.28,380.61C188.76,381.28 189.17,382.27 189.73,382.87C189.8,383.93 189.94,384.23 190.15,383.78C190.68,381.52 191.78,379.49 193.44,377.68C190.87,378.68 188.04,382.19 185.9,383.96C183.19,386.19 180.46,388.42 177.73,390.63C171.89,395.38 166.02,400.09 160.16,404.81C148.39,414.27 136.61,423.72 124.98,433.36C121.23,436.47 117.78,442.93 119.38,447.9C121,452.95 126.16,451.71 129.39,449.03Z" style="fill:white;fill-rule:nonzero;"/>
        </g>
        <g>
            <path d="M241.55,449.02C253.56,438.89 265.76,428.97 277.92,419.02C283.95,414.09 289.98,409.15 295.98,404.17C301.9,399.26 309.52,394.34 313.43,387.56C321.1,374.27 313.08,362.55 302.38,354.48C291.49,346.26 278.93,343.86 266.82,351.12C253.47,359.12 244.08,373.06 237.42,386.81C230.26,401.57 225.82,417.53 225.52,434C225.24,448.8 228.58,465.31 238.46,476.82C248.55,488.57 262.45,492.01 277.07,487.04C307.85,476.59 328.57,446.88 347.14,421.84C349.76,418.31 353.19,411.7 349.98,407.5C346.88,403.45 341.11,407.12 338.86,410.15C325.83,427.72 312.43,447.42 294.13,459.93C285.52,465.82 273.17,471.8 262.73,467.44C251.97,462.94 245.86,451.91 243.29,441.06C238.1,419.11 245.38,393.33 259.83,376.22C267.12,367.59 275.9,364.57 286.06,370.56C289.2,372.41 292.29,374.59 294.93,377.13C296.43,378.57 297.93,380.22 299.04,381.98C299.24,382.3 300.05,384.11 300.27,384.39C300.36,384.75 300.45,385.1 300.54,385.46C300.23,382.71 301.3,380.32 303.75,378.27C301.16,379.39 298.5,382.73 296.28,384.59C293.58,386.85 290.87,389.09 288.16,391.33C282.59,395.93 276.99,400.51 271.4,405.08C259.93,414.45 248.46,423.8 237.14,433.35C233.41,436.5 229.93,442.9 231.54,447.89C233.15,452.91 238.33,451.73 241.55,449.02Z" style="fill:white;fill-rule:nonzero;"/>
        </g>
        <g>
            <path d="M619.03,293.91L619.04,295.25L615.25,295.29L615.36,305.19L613.82,305.21L613.71,295.31L609.92,295.35L609.91,294.01L619.03,293.91Z" style="fill:white;fill-rule:nonzero;"/>
            <path d="M620.54,293.89L622.72,293.87L626.06,303.33L629.16,293.79L631.33,293.77L631.46,305.01L630.01,305.03L629.93,298.4L629.93,295.55L626.83,305.06L625.32,305.08L621.97,295.64L621.97,295.98C621.97,296.26 621.99,296.68 622.01,297.24C622.03,297.8 622.04,298.22 622.05,298.48L622.13,305.11L620.68,305.13L620.54,293.89Z" style="fill:white;fill-rule:nonzero;"/>
        </g>
        <g>
            <path d="M433.11,384.5C433.9,374.25 429.43,362.73 423.81,354.33C417.93,345.54 407.36,340.37 396.81,341.13C383.71,342.07 372.92,351.51 364.25,360.63C355.93,369.39 349.56,379.74 344.68,390.75C335.26,412.02 332.08,437.83 336.77,460.68C339.15,472.28 345.75,483.98 357.19,488.64C369.16,493.53 381.21,489.1 390.89,481.46C413.9,463.3 423.53,432.85 429.13,405.29C429.98,401.13 428.16,396.14 423.15,397.18C417.99,398.25 414.31,404.6 413.36,409.3C409.77,426.96 404.96,445.17 393.14,459.25C387.95,465.43 380.97,471.15 372.38,470.09C363.36,468.98 356.67,461.3 353.92,453.08C348.59,437.14 350.28,416.95 355.46,401.16C360.25,386.56 370.29,369.14 385.25,362.9C403.25,355.4 418.1,377.63 416.88,393.49C416.5,398.42 421.26,400.36 425.15,398.26C430.12,395.59 432.7,389.86 433.11,384.5Z" style="fill:white;fill-rule:nonzero;"/>
        </g>
        <g>
            <path d="M109.58,519.8L109.58,520.18C109.58,520.31 109.57,520.44 109.56,520.56L100.51,520.56C100.53,521.04 100.63,521.49 100.83,521.91C101.03,522.33 101.3,522.7 101.63,523.01C101.97,523.32 102.35,523.56 102.79,523.74C103.23,523.92 103.7,524 104.19,524C104.96,524 105.62,523.83 106.18,523.5C106.74,523.17 107.18,522.76 107.5,522.28L109.08,523.55C108.47,524.36 107.76,524.95 106.93,525.33C106.11,525.71 105.19,525.9 104.18,525.9C103.32,525.9 102.52,525.76 101.78,525.47C101.04,525.18 100.41,524.78 99.88,524.26C99.35,523.74 98.94,523.11 98.63,522.38C98.33,521.64 98.17,520.83 98.17,519.93C98.17,519.05 98.32,518.24 98.61,517.49C98.91,516.75 99.32,516.11 99.85,515.58C100.38,515.05 101,514.64 101.73,514.34C102.45,514.04 103.23,513.9 104.06,513.9C104.89,513.9 105.65,514.04 106.33,514.31C107.01,514.58 107.59,514.97 108.06,515.49C108.53,516 108.9,516.62 109.15,517.35C109.45,518.07 109.58,518.88 109.58,519.8ZM107.27,518.88C107.25,518.43 107.18,518.01 107.04,517.62C106.9,517.23 106.7,516.89 106.44,516.6C106.18,516.31 105.85,516.08 105.46,515.92C105.07,515.76 104.61,515.67 104.08,515.67C103.6,515.67 103.15,515.75 102.72,515.92C102.3,516.09 101.93,516.32 101.62,516.6C101.31,516.89 101.05,517.23 100.85,517.62C100.65,518.01 100.53,518.43 100.5,518.88L107.27,518.88Z" style="fill:white;fill-rule:nonzero;"/>
            <rect x="112.98" y="507.44" width="2.26" height="18.14" style="fill:white;fill-rule:nonzero;"/>
            <path d="M130.05,519.8L130.05,520.18C130.05,520.31 130.04,520.44 130.03,520.56L120.98,520.56C121,521.04 121.1,521.49 121.3,521.91C121.5,522.33 121.77,522.7 122.1,523.01C122.44,523.32 122.82,523.56 123.26,523.74C123.7,523.92 124.17,524 124.66,524C125.43,524 126.09,523.83 126.65,523.5C127.21,523.17 127.65,522.76 127.97,522.28L129.55,523.55C128.94,524.36 128.23,524.95 127.4,525.33C126.58,525.71 125.66,525.9 124.65,525.9C123.79,525.9 122.99,525.76 122.25,525.47C121.51,525.18 120.88,524.78 120.35,524.26C119.82,523.74 119.41,523.11 119.1,522.38C118.8,521.64 118.64,520.83 118.64,519.93C118.64,519.05 118.79,518.24 119.08,517.49C119.38,516.75 119.79,516.11 120.32,515.58C120.85,515.05 121.47,514.64 122.2,514.34C122.92,514.04 123.7,513.9 124.53,513.9C125.36,513.9 126.12,514.04 126.8,514.31C127.48,514.58 128.06,514.97 128.53,515.49C129,516 129.37,516.62 129.62,517.35C129.92,518.07 130.05,518.88 130.05,519.8ZM127.75,518.88C127.73,518.43 127.66,518.01 127.52,517.62C127.38,517.23 127.18,516.89 126.92,516.6C126.66,516.31 126.33,516.08 125.94,515.92C125.55,515.76 125.09,515.67 124.56,515.67C124.08,515.67 123.63,515.75 123.2,515.92C122.78,516.09 122.41,516.32 122.1,516.6C121.79,516.89 121.53,517.23 121.33,517.62C121.13,518.01 121.01,518.43 120.98,518.88L127.75,518.88Z" style="fill:white;fill-rule:nonzero;"/>
            <path d="M141.38,517.08C141.14,516.71 140.78,516.4 140.3,516.16C139.82,515.92 139.31,515.79 138.76,515.79C138.17,515.79 137.64,515.9 137.19,516.13C136.73,516.35 136.35,516.65 136.03,517.03C135.71,517.41 135.47,517.84 135.3,518.34C135.13,518.84 135.05,519.36 135.05,519.9C135.05,520.44 135.13,520.96 135.3,521.46C135.47,521.96 135.71,522.39 136.03,522.77C136.35,523.15 136.74,523.45 137.21,523.67C137.67,523.89 138.2,524.01 138.79,524.01C139.37,524.01 139.89,523.9 140.36,523.67C140.83,523.45 141.22,523.14 141.52,522.76L143.03,524.13C142.55,524.69 141.95,525.13 141.23,525.44C140.51,525.75 139.69,525.91 138.78,525.91C137.9,525.91 137.09,525.77 136.34,525.48C135.6,525.19 134.95,524.79 134.41,524.27C133.87,523.75 133.44,523.12 133.13,522.39C132.82,521.66 132.66,520.83 132.66,519.92C132.66,519.02 132.81,518.21 133.12,517.47C133.42,516.73 133.85,516.1 134.39,515.57C134.93,515.04 135.58,514.63 136.32,514.35C137.06,514.06 137.87,513.92 138.73,513.92C139.53,513.92 140.33,514.08 141.12,514.4C141.91,514.72 142.54,515.18 143,515.79L141.38,517.08Z" style="fill:white;fill-rule:nonzero;"/>
            <path d="M151.07,516.05L148.05,516.05L148.05,521.96C148.05,522.65 148.18,523.14 148.43,523.43C148.69,523.72 149.09,523.87 149.65,523.87C149.86,523.87 150.08,523.85 150.32,523.8C150.56,523.76 150.78,523.69 150.97,523.6L151.04,525.45C150.77,525.55 150.47,525.62 150.14,525.68C149.81,525.74 149.47,525.76 149.12,525.76C148.05,525.76 147.23,525.46 146.66,524.87C146.09,524.28 145.81,523.39 145.81,522.21L145.81,516.04L143.63,516.04L143.63,514.19L145.81,514.19L145.81,510.93L148.04,510.93L148.04,514.19L151.06,514.19L151.06,516.05L151.07,516.05Z" style="fill:white;fill-rule:nonzero;"/>
            <path d="M153.62,515.48C153.6,515 153.58,514.58 153.55,514.21L155.69,514.21C155.72,514.5 155.75,514.83 155.76,515.21C155.78,515.59 155.78,515.89 155.78,516.13L155.85,516.13C156.17,515.46 156.64,514.92 157.25,514.51C157.87,514.1 158.56,513.9 159.33,513.9C159.68,513.9 159.98,513.93 160.22,514L160.12,516.09C159.8,516.01 159.46,515.97 159.09,515.97C158.55,515.97 158.07,516.07 157.67,516.27C157.27,516.47 156.94,516.74 156.67,517.07C156.41,517.41 156.21,517.79 156.08,518.23C155.95,518.67 155.89,519.13 155.89,519.61L155.89,525.59L153.63,525.59L153.63,516.66C153.64,516.35 153.63,515.96 153.62,515.48Z" style="fill:white;fill-rule:nonzero;"/>
            <path d="M173.66,519.87C173.66,520.75 173.5,521.56 173.19,522.29C172.88,523.03 172.45,523.66 171.89,524.2C171.34,524.74 170.69,525.15 169.93,525.45C169.18,525.75 168.37,525.89 167.51,525.89C166.65,525.89 165.84,525.74 165.09,525.45C164.34,525.15 163.69,524.74 163.15,524.2C162.61,523.66 162.18,523.03 161.87,522.29C161.56,521.55 161.4,520.75 161.4,519.87C161.4,518.99 161.56,518.19 161.87,517.46C162.18,516.73 162.61,516.1 163.15,515.58C163.69,515.05 164.34,514.64 165.09,514.34C165.84,514.04 166.65,513.9 167.51,513.9C168.37,513.9 169.18,514.05 169.93,514.34C170.68,514.64 171.33,515.05 171.89,515.58C172.44,516.11 172.87,516.74 173.19,517.46C173.5,518.19 173.66,518.99 173.66,519.87ZM171.31,519.88C171.31,519.34 171.23,518.82 171.06,518.32C170.89,517.83 170.65,517.39 170.33,517.02C170.01,516.65 169.61,516.35 169.14,516.12C168.67,515.89 168.12,515.79 167.52,515.79C166.91,515.79 166.37,515.9 165.89,516.12C165.42,516.34 165.02,516.64 164.7,517.02C164.38,517.4 164.13,517.83 163.97,518.32C163.8,518.82 163.72,519.33 163.72,519.88C163.72,520.42 163.8,520.94 163.97,521.44C164.14,521.94 164.38,522.37 164.7,522.76C165.02,523.14 165.42,523.45 165.89,523.67C166.36,523.89 166.91,524 167.52,524C168.13,524 168.67,523.89 169.14,523.67C169.61,523.45 170.01,523.14 170.33,522.76C170.65,522.38 170.9,521.94 171.06,521.44C171.22,520.94 171.31,520.42 171.31,519.88Z" style="fill:white;fill-rule:nonzero;"/>
            <path d="M179.06,514.21C179.09,514.5 179.12,514.82 179.13,515.18C179.15,515.54 179.15,515.84 179.15,516.08L179.22,516.08C179.36,515.78 179.56,515.49 179.81,515.23C180.06,514.97 180.34,514.73 180.66,514.53C180.98,514.33 181.33,514.17 181.72,514.06C182.1,513.95 182.5,513.89 182.92,513.89C183.66,513.89 184.29,514.01 184.82,514.26C185.35,514.51 185.79,514.84 186.14,515.26C186.49,515.68 186.75,516.16 186.92,516.72C187.09,517.28 187.17,517.88 187.17,518.52L187.17,525.58L184.91,525.58L184.91,519.27C184.91,518.81 184.87,518.37 184.8,517.95C184.73,517.53 184.6,517.17 184.4,516.85C184.21,516.53 183.94,516.27 183.61,516.08C183.28,515.89 182.84,515.79 182.31,515.79C181.41,515.79 180.68,516.13 180.11,516.81C179.54,517.49 179.26,518.4 179.26,519.53L179.26,525.58L177,525.58L177,516.65C177,516.35 176.99,515.95 176.98,515.47C176.96,514.99 176.94,514.57 176.91,514.2L179.06,514.2L179.06,514.21Z" style="fill:white;fill-rule:nonzero;"/>
            <path d="M193.86,510.1C193.86,510.52 193.71,510.86 193.42,511.13C193.13,511.4 192.77,511.54 192.36,511.54C191.95,511.54 191.6,511.4 191.31,511.12C191.02,510.84 190.88,510.5 190.88,510.1C190.88,509.68 191.02,509.34 191.31,509.06C191.6,508.78 191.94,508.64 192.36,508.64C192.78,508.64 193.13,508.78 193.42,509.06C193.72,509.34 193.86,509.69 193.86,510.1ZM193.5,525.58L191.24,525.58L191.24,514.2L193.5,514.2L193.5,525.58Z" style="fill:white;fill-rule:nonzero;"/>
            <path d="M205.65,517.08C205.41,516.71 205.05,516.4 204.57,516.16C204.09,515.92 203.58,515.79 203.03,515.79C202.44,515.79 201.91,515.9 201.46,516.13C201,516.35 200.62,516.65 200.3,517.03C199.98,517.41 199.74,517.84 199.57,518.34C199.4,518.84 199.32,519.36 199.32,519.9C199.32,520.44 199.4,520.96 199.57,521.46C199.74,521.96 199.98,522.39 200.3,522.77C200.62,523.15 201.01,523.45 201.48,523.67C201.94,523.89 202.47,524.01 203.06,524.01C203.64,524.01 204.16,523.9 204.63,523.67C205.1,523.45 205.49,523.14 205.79,522.76L207.3,524.13C206.82,524.69 206.22,525.13 205.5,525.44C204.78,525.75 203.96,525.91 203.05,525.91C202.17,525.91 201.36,525.77 200.61,525.48C199.87,525.19 199.22,524.79 198.68,524.27C198.14,523.75 197.71,523.12 197.4,522.39C197.09,521.66 196.93,520.83 196.93,519.92C196.93,519.02 197.08,518.21 197.39,517.47C197.69,516.73 198.12,516.1 198.66,515.57C199.2,515.04 199.85,514.63 200.59,514.35C201.33,514.06 202.14,513.92 203,513.92C203.8,513.92 204.6,514.08 205.39,514.4C206.18,514.72 206.81,515.18 207.27,515.79L205.65,517.08Z" style="fill:white;fill-rule:nonzero;"/>
            <path d="M226.65,519.8L226.65,520.18C226.65,520.31 226.64,520.44 226.63,520.56L217.58,520.56C217.6,521.04 217.7,521.49 217.9,521.91C218.1,522.33 218.37,522.7 218.7,523.01C219.04,523.32 219.42,523.56 219.86,523.74C220.3,523.92 220.77,524 221.26,524C222.03,524 222.69,523.83 223.25,523.5C223.81,523.17 224.25,522.76 224.57,522.28L226.15,523.55C225.54,524.36 224.83,524.95 224,525.33C223.18,525.71 222.26,525.9 221.25,525.9C220.39,525.9 219.59,525.76 218.85,525.47C218.11,525.18 217.48,524.78 216.95,524.26C216.42,523.74 216.01,523.11 215.7,522.38C215.4,521.64 215.24,520.83 215.24,519.93C215.24,519.05 215.39,518.24 215.68,517.49C215.98,516.75 216.39,516.11 216.92,515.58C217.45,515.05 218.07,514.64 218.8,514.34C219.52,514.04 220.3,513.9 221.13,513.9C221.96,513.9 222.72,514.04 223.4,514.31C224.08,514.58 224.66,514.97 225.13,515.49C225.6,516 225.97,516.62 226.22,517.35C226.52,518.07 226.65,518.88 226.65,519.8ZM224.34,518.88C224.32,518.43 224.25,518.01 224.11,517.62C223.97,517.23 223.77,516.89 223.51,516.6C223.25,516.31 222.92,516.08 222.53,515.92C222.14,515.76 221.68,515.67 221.15,515.67C220.67,515.67 220.22,515.75 219.79,515.92C219.37,516.09 219,516.32 218.69,516.6C218.38,516.89 218.12,517.23 217.92,517.62C217.72,518.01 217.6,518.43 217.57,518.88L224.34,518.88Z" style="fill:white;fill-rule:nonzero;"/>
            <path d="M239.08,523.78C238.65,524.47 238.06,524.99 237.32,525.35C236.58,525.71 235.8,525.89 234.98,525.89C234.1,525.89 233.31,525.73 232.6,525.42C231.9,525.11 231.3,524.68 230.8,524.14C230.3,523.6 229.92,522.96 229.65,522.22C229.38,521.48 229.24,520.7 229.24,519.87C229.24,519.04 229.38,518.26 229.65,517.53C229.92,516.8 230.31,516.17 230.81,515.62C231.31,515.07 231.92,514.65 232.62,514.35C233.32,514.05 234.1,513.89 234.95,513.89C235.88,513.89 236.69,514.09 237.37,514.48C238.06,514.87 238.6,515.35 239,515.91L239.05,515.91L239.05,507.44L241.31,507.44L241.31,525.58L239.13,525.58L239.13,523.78L239.08,523.78ZM231.59,519.88C231.59,520.41 231.67,520.92 231.83,521.41C231.99,521.91 232.23,522.34 232.55,522.73C232.87,523.11 233.26,523.42 233.73,523.65C234.19,523.88 234.74,524 235.36,524C235.94,524 236.46,523.89 236.93,523.67C237.4,523.45 237.81,523.15 238.14,522.77C238.47,522.39 238.74,521.96 238.92,521.47C239.1,520.97 239.2,520.46 239.2,519.91C239.2,519.36 239.11,518.85 238.92,518.35C238.73,517.85 238.48,517.42 238.14,517.03C237.8,516.65 237.4,516.34 236.93,516.12C236.46,515.9 235.93,515.79 235.36,515.79C234.74,515.79 234.19,515.9 233.73,516.12C233.27,516.34 232.87,516.65 232.55,517.03C232.23,517.41 231.99,517.85 231.83,518.35C231.67,518.84 231.59,519.35 231.59,519.88Z" style="fill:white;fill-rule:nonzero;"/>
            <path d="M253.5,525.58C253.47,525.29 253.44,524.97 253.43,524.61C253.41,524.25 253.41,523.95 253.41,523.71L253.36,523.71C253.07,524.32 252.59,524.83 251.91,525.26C251.23,525.69 250.47,525.9 249.64,525.9C248.9,525.9 248.27,525.78 247.73,525.54C247.19,525.3 246.75,524.97 246.41,524.54C246.07,524.12 245.81,523.62 245.64,523.06C245.47,522.5 245.39,521.9 245.39,521.26L245.39,514.2L247.65,514.2L247.65,520.49C247.65,520.95 247.69,521.4 247.76,521.82C247.83,522.24 247.96,522.62 248.16,522.94C248.36,523.26 248.62,523.52 248.95,523.71C249.28,523.9 249.72,524 250.25,524C251.16,524 251.9,523.66 252.46,522.98C253.02,522.3 253.3,521.39 253.3,520.26L253.3,514.21L255.56,514.21L255.56,523.14C255.56,523.44 255.57,523.84 255.58,524.32C255.6,524.8 255.62,525.22 255.65,525.59L253.5,525.59L253.5,525.58Z" style="fill:white;fill-rule:nonzero;"/>
            <path d="M267.66,517.08C267.42,516.71 267.06,516.4 266.58,516.16C266.1,515.92 265.59,515.79 265.04,515.79C264.45,515.79 263.92,515.9 263.47,516.13C263.01,516.35 262.63,516.65 262.31,517.03C261.99,517.41 261.75,517.84 261.58,518.34C261.41,518.84 261.33,519.36 261.33,519.9C261.33,520.44 261.41,520.96 261.58,521.46C261.75,521.96 261.99,522.39 262.31,522.77C262.63,523.15 263.02,523.45 263.49,523.67C263.95,523.89 264.48,524.01 265.07,524.01C265.65,524.01 266.17,523.9 266.64,523.67C267.11,523.45 267.5,523.14 267.8,522.76L269.31,524.13C268.83,524.69 268.23,525.13 267.51,525.44C266.79,525.75 265.97,525.91 265.06,525.91C264.18,525.91 263.37,525.77 262.62,525.48C261.88,525.19 261.23,524.79 260.69,524.27C260.15,523.75 259.72,523.12 259.41,522.39C259.1,521.66 258.94,520.83 258.94,519.92C258.94,519.02 259.09,518.21 259.4,517.47C259.7,516.73 260.13,516.1 260.67,515.57C261.21,515.04 261.86,514.63 262.6,514.35C263.34,514.06 264.15,513.92 265.01,513.92C265.81,513.92 266.61,514.08 267.4,514.4C268.19,514.72 268.82,515.18 269.28,515.79L267.66,517.08Z" style="fill:white;fill-rule:nonzero;"/>
            <path d="M278.87,518.21C278.87,517.36 278.61,516.73 278.1,516.33C277.59,515.93 276.91,515.72 276.06,515.72C275.42,515.72 274.82,515.84 274.25,516.09C273.68,516.34 273.21,516.65 272.82,517.04L271.62,515.6C272.18,515.07 272.86,514.66 273.67,514.35C274.48,514.05 275.35,513.89 276.27,513.89C277.09,513.89 277.79,514.01 278.39,514.24C278.99,514.47 279.48,514.79 279.87,515.19C280.25,515.59 280.54,516.06 280.73,516.61C280.92,517.16 281.02,517.74 281.02,518.36L281.02,523.33C281.02,523.71 281.03,524.12 281.06,524.54C281.08,524.96 281.13,525.31 281.19,525.58L279.15,525.58C279.02,525.04 278.96,524.49 278.96,523.95L278.89,523.95C278.47,524.56 277.95,525.03 277.32,525.37C276.69,525.71 275.94,525.87 275.08,525.87C274.63,525.87 274.16,525.81 273.68,525.69C273.19,525.57 272.75,525.37 272.35,525.1C271.95,524.83 271.62,524.47 271.35,524.02C271.09,523.57 270.95,523.02 270.95,522.36C270.95,521.5 271.18,520.81 271.65,520.31C272.11,519.81 272.72,519.42 273.47,519.16C274.22,518.9 275.07,518.72 276.01,518.64C276.95,518.56 277.91,518.52 278.87,518.52L278.87,518.21ZM278.32,520.16C277.76,520.16 277.18,520.18 276.58,520.23C275.98,520.28 275.44,520.37 274.95,520.52C274.46,520.66 274.06,520.88 273.74,521.17C273.42,521.46 273.26,521.84 273.26,522.32C273.26,522.66 273.33,522.94 273.46,523.16C273.59,523.38 273.78,523.57 274,523.71C274.22,523.85 274.47,523.95 274.74,524.01C275.01,524.07 275.29,524.09 275.58,524.09C276.64,524.09 277.45,523.77 278.02,523.14C278.59,522.51 278.87,521.71 278.87,520.75L278.87,520.15L278.32,520.15L278.32,520.16Z" style="fill:white;fill-rule:nonzero;"/>
            <path d="M290.37,516.05L287.35,516.05L287.35,521.96C287.35,522.65 287.48,523.14 287.73,523.43C287.99,523.72 288.39,523.87 288.95,523.87C289.16,523.87 289.38,523.85 289.62,523.8C289.86,523.76 290.08,523.69 290.27,523.6L290.34,525.45C290.07,525.55 289.77,525.62 289.44,525.68C289.11,525.74 288.77,525.76 288.42,525.76C287.35,525.76 286.53,525.46 285.96,524.87C285.39,524.28 285.11,523.39 285.11,522.21L285.11,516.04L282.93,516.04L282.93,514.19L285.11,514.19L285.11,510.93L287.34,510.93L287.34,514.19L290.36,514.19L290.36,516.05L290.37,516.05Z" style="fill:white;fill-rule:nonzero;"/>
            <path d="M295.58,510.1C295.58,510.52 295.43,510.86 295.14,511.13C294.85,511.4 294.49,511.54 294.08,511.54C293.67,511.54 293.32,511.4 293.03,511.12C292.74,510.84 292.6,510.5 292.6,510.1C292.6,509.68 292.74,509.34 293.03,509.06C293.32,508.78 293.66,508.64 294.08,508.64C294.5,508.64 294.85,508.78 295.14,509.06C295.43,509.34 295.58,509.69 295.58,510.1ZM295.22,525.58L292.96,525.58L292.96,514.2L295.22,514.2L295.22,525.58Z" style="fill:white;fill-rule:nonzero;"/>
            <path d="M310.91,519.87C310.91,520.75 310.75,521.56 310.44,522.29C310.13,523.03 309.7,523.66 309.14,524.2C308.59,524.74 307.94,525.15 307.18,525.45C306.43,525.75 305.62,525.89 304.76,525.89C303.9,525.89 303.09,525.74 302.34,525.45C301.59,525.15 300.94,524.74 300.4,524.2C299.86,523.66 299.43,523.03 299.12,522.29C298.81,521.55 298.65,520.75 298.65,519.87C298.65,518.99 298.81,518.19 299.12,517.46C299.43,516.73 299.86,516.1 300.4,515.58C300.94,515.05 301.59,514.64 302.34,514.34C303.09,514.04 303.9,513.9 304.76,513.9C305.62,513.9 306.43,514.05 307.18,514.34C307.93,514.64 308.58,515.05 309.14,515.58C309.69,516.11 310.12,516.74 310.44,517.46C310.76,518.19 310.91,518.99 310.91,519.87ZM308.56,519.88C308.56,519.34 308.48,518.82 308.31,518.32C308.14,517.83 307.9,517.39 307.58,517.02C307.26,516.65 306.86,516.35 306.39,516.12C305.92,515.89 305.37,515.79 304.77,515.79C304.16,515.79 303.62,515.9 303.14,516.12C302.67,516.34 302.27,516.64 301.95,517.02C301.63,517.4 301.38,517.83 301.22,518.32C301.05,518.82 300.97,519.33 300.97,519.88C300.97,520.42 301.05,520.94 301.22,521.44C301.39,521.94 301.63,522.37 301.95,522.76C302.27,523.14 302.67,523.45 303.14,523.67C303.61,523.89 304.16,524 304.77,524C305.38,524 305.92,523.89 306.39,523.67C306.86,523.45 307.26,523.14 307.58,522.76C307.9,522.38 308.15,521.94 308.31,521.44C308.48,520.94 308.56,520.42 308.56,519.88Z" style="fill:white;fill-rule:nonzero;"/>
            <path d="M316.31,514.21C316.34,514.5 316.37,514.82 316.38,515.18C316.4,515.54 316.4,515.84 316.4,516.08L316.47,516.08C316.61,515.78 316.81,515.49 317.06,515.23C317.31,514.97 317.59,514.73 317.91,514.53C318.23,514.33 318.58,514.17 318.97,514.06C319.35,513.95 319.75,513.89 320.17,513.89C320.91,513.89 321.54,514.01 322.07,514.26C322.6,514.51 323.04,514.84 323.39,515.26C323.74,515.68 324,516.16 324.17,516.72C324.34,517.28 324.42,517.88 324.42,518.52L324.42,525.58L322.16,525.58L322.16,519.27C322.16,518.81 322.12,518.37 322.05,517.95C321.98,517.53 321.85,517.17 321.65,516.85C321.46,516.53 321.19,516.27 320.86,516.08C320.53,515.89 320.09,515.79 319.56,515.79C318.66,515.79 317.93,516.13 317.36,516.81C316.79,517.49 316.51,518.4 316.51,519.53L316.51,525.58L314.25,525.58L314.25,516.65C314.25,516.35 314.24,515.95 314.23,515.47C314.21,514.99 314.19,514.57 314.16,514.2L316.31,514.2L316.31,514.21Z" style="fill:white;fill-rule:nonzero;"/>
            <path d="M343.79,523.78C343.36,524.47 342.77,524.99 342.03,525.35C341.29,525.71 340.51,525.89 339.69,525.89C338.81,525.89 338.02,525.73 337.31,525.42C336.61,525.11 336.01,524.68 335.51,524.14C335.01,523.6 334.63,522.96 334.36,522.22C334.09,521.48 333.95,520.7 333.95,519.87C333.95,519.04 334.09,518.26 334.36,517.53C334.63,516.8 335.02,516.17 335.52,515.62C336.02,515.07 336.63,514.65 337.33,514.35C338.03,514.05 338.81,513.89 339.66,513.89C340.59,513.89 341.4,514.09 342.08,514.48C342.77,514.87 343.31,515.35 343.71,515.91L343.76,515.91L343.76,507.44L346.02,507.44L346.02,525.58L343.84,525.58L343.84,523.78L343.79,523.78ZM336.3,519.88C336.3,520.41 336.38,520.92 336.54,521.41C336.7,521.91 336.94,522.34 337.26,522.73C337.58,523.11 337.97,523.42 338.44,523.65C338.9,523.88 339.45,524 340.07,524C340.65,524 341.17,523.89 341.64,523.67C342.11,523.45 342.52,523.15 342.85,522.77C343.18,522.39 343.45,521.96 343.63,521.47C343.81,520.97 343.91,520.46 343.91,519.91C343.91,519.36 343.82,518.85 343.63,518.35C343.44,517.85 343.19,517.42 342.85,517.03C342.51,516.65 342.11,516.34 341.64,516.12C341.17,515.9 340.64,515.79 340.07,515.79C339.45,515.79 338.9,515.9 338.44,516.12C337.98,516.34 337.58,516.65 337.26,517.03C336.94,517.41 336.7,517.85 336.54,518.35C336.38,518.84 336.3,519.35 336.3,519.88Z" style="fill:white;fill-rule:nonzero;"/>
            <path d="M361.72,519.87C361.72,520.75 361.56,521.56 361.25,522.29C360.94,523.03 360.51,523.66 359.95,524.2C359.4,524.74 358.75,525.15 357.99,525.45C357.24,525.75 356.43,525.89 355.57,525.89C354.71,525.89 353.9,525.74 353.15,525.45C352.4,525.15 351.75,524.74 351.21,524.2C350.67,523.66 350.24,523.03 349.93,522.29C349.62,521.55 349.46,520.75 349.46,519.87C349.46,518.99 349.62,518.19 349.93,517.46C350.24,516.73 350.67,516.1 351.21,515.58C351.75,515.05 352.4,514.64 353.15,514.34C353.9,514.04 354.71,513.9 355.57,513.9C356.43,513.9 357.24,514.05 357.99,514.34C358.74,514.64 359.39,515.05 359.95,515.58C360.5,516.11 360.93,516.74 361.25,517.46C361.56,518.19 361.72,518.99 361.72,519.87ZM359.37,519.88C359.37,519.34 359.29,518.82 359.12,518.32C358.95,517.83 358.71,517.39 358.39,517.02C358.07,516.65 357.67,516.35 357.2,516.12C356.73,515.89 356.18,515.79 355.58,515.79C354.97,515.79 354.43,515.9 353.95,516.12C353.48,516.34 353.08,516.64 352.76,517.02C352.44,517.4 352.19,517.83 352.03,518.32C351.86,518.82 351.78,519.33 351.78,519.88C351.78,520.42 351.86,520.94 352.03,521.44C352.2,521.94 352.44,522.37 352.76,522.76C353.08,523.14 353.48,523.45 353.95,523.67C354.42,523.89 354.97,524 355.58,524C356.19,524 356.73,523.89 357.2,523.67C357.67,523.45 358.07,523.14 358.39,522.76C358.71,522.38 358.96,521.94 359.12,521.44C359.28,520.94 359.37,520.42 359.37,519.88Z" style="fill:white;fill-rule:nonzero;"/>
            <path d="M373.05,517.08C372.81,516.71 372.45,516.4 371.97,516.16C371.49,515.91 370.98,515.79 370.43,515.79C369.84,515.79 369.31,515.9 368.86,516.13C368.4,516.35 368.02,516.65 367.7,517.03C367.38,517.41 367.14,517.84 366.97,518.34C366.8,518.84 366.72,519.36 366.72,519.9C366.72,520.44 366.8,520.96 366.97,521.46C367.14,521.96 367.38,522.39 367.7,522.77C368.02,523.15 368.41,523.45 368.88,523.67C369.34,523.89 369.87,524.01 370.46,524.01C371.04,524.01 371.56,523.9 372.03,523.67C372.5,523.45 372.89,523.14 373.19,522.76L374.7,524.13C374.22,524.69 373.62,525.13 372.9,525.44C372.18,525.75 371.36,525.91 370.45,525.91C369.57,525.91 368.76,525.77 368.01,525.48C367.26,525.19 366.62,524.79 366.08,524.27C365.54,523.75 365.11,523.12 364.8,522.39C364.49,521.65 364.33,520.83 364.33,519.92C364.33,519.02 364.48,518.21 364.79,517.47C365.09,516.73 365.52,516.1 366.06,515.57C366.6,515.04 367.25,514.63 367.99,514.35C368.73,514.06 369.54,513.92 370.4,513.92C371.2,513.92 372,514.08 372.79,514.4C373.58,514.72 374.21,515.18 374.67,515.79L373.05,517.08Z" style="fill:white;fill-rule:nonzero;"/>
            <path d="M385.19,525.58C385.16,525.29 385.13,524.97 385.12,524.61C385.1,524.25 385.1,523.95 385.1,523.71L385.05,523.71C384.76,524.32 384.28,524.83 383.6,525.26C382.92,525.68 382.16,525.9 381.33,525.9C380.59,525.9 379.96,525.78 379.42,525.54C378.88,525.3 378.44,524.97 378.1,524.54C377.76,524.12 377.5,523.62 377.33,523.06C377.16,522.5 377.08,521.9 377.08,521.26L377.08,514.2L379.34,514.2L379.34,520.49C379.34,520.95 379.38,521.4 379.45,521.82C379.52,522.24 379.65,522.62 379.85,522.94C380.04,523.26 380.31,523.52 380.64,523.71C380.97,523.9 381.41,524 381.94,524C382.85,524 383.59,523.66 384.15,522.98C384.71,522.3 384.99,521.39 384.99,520.26L384.99,514.21L387.25,514.21L387.25,523.14C387.25,523.44 387.26,523.84 387.27,524.32C387.29,524.8 387.31,525.22 387.34,525.59L385.19,525.59L385.19,525.58Z" style="fill:white;fill-rule:nonzero;"/>
            <path d="M394.97,514.53C395.6,514.11 396.35,513.89 397.21,513.89C397.98,513.89 398.67,514.07 399.29,514.42C399.91,514.77 400.39,515.36 400.74,516.17C401.12,515.43 401.66,514.87 402.35,514.48C403.04,514.09 403.79,513.89 404.61,513.89C405.35,513.89 405.98,514.01 406.51,514.26C407.04,514.51 407.48,514.84 407.83,515.26C408.18,515.68 408.44,516.16 408.61,516.72C408.78,517.28 408.86,517.88 408.86,518.52L408.86,525.58L406.6,525.58L406.6,519.27C406.6,518.81 406.56,518.37 406.48,517.95C406.4,517.53 406.26,517.17 406.07,516.85C405.88,516.53 405.62,516.27 405.3,516.08C404.98,515.89 404.57,515.79 404.08,515.79C403.57,515.79 403.13,515.9 402.76,516.11C402.39,516.33 402.09,516.61 401.86,516.95C401.63,517.29 401.46,517.68 401.36,518.11C401.26,518.54 401.2,518.98 401.2,519.43L401.2,525.57L398.94,525.57L398.94,518.8C398.94,518.35 398.9,517.94 398.82,517.58C398.74,517.22 398.6,516.9 398.41,516.63C398.22,516.37 397.97,516.16 397.67,516.01C397.37,515.86 396.99,515.78 396.54,515.78C395.71,515.78 395.02,516.12 394.46,516.8C393.91,517.48 393.63,518.39 393.63,519.52L393.63,525.57L391.37,525.57L391.37,516.64C391.37,516.34 391.36,515.94 391.35,515.46C391.33,514.98 391.31,514.56 391.28,514.19L393.42,514.19C393.45,514.48 393.48,514.8 393.49,515.16C393.51,515.52 393.51,515.82 393.51,516.06L393.58,516.06C393.88,515.47 394.34,514.95 394.97,514.53Z" style="fill:white;fill-rule:nonzero;"/>
            <path d="M423.54,519.8L423.54,520.18C423.54,520.31 423.53,520.44 423.52,520.56L414.47,520.56C414.49,521.04 414.59,521.49 414.79,521.91C414.99,522.33 415.26,522.7 415.59,523.01C415.93,523.32 416.31,523.56 416.75,523.74C417.19,523.92 417.66,524 418.15,524C418.92,524 419.58,523.83 420.14,523.5C420.7,523.16 421.14,522.76 421.46,522.28L423.04,523.55C422.43,524.36 421.72,524.95 420.89,525.33C420.07,525.71 419.15,525.9 418.14,525.9C417.28,525.9 416.48,525.76 415.74,525.47C415,525.18 414.37,524.78 413.84,524.26C413.31,523.74 412.9,523.11 412.59,522.38C412.29,521.64 412.13,520.83 412.13,519.93C412.13,519.05 412.28,518.24 412.57,517.49C412.87,516.75 413.28,516.11 413.81,515.58C414.34,515.05 414.96,514.64 415.69,514.34C416.41,514.04 417.19,513.9 418.02,513.9C418.85,513.9 419.61,514.04 420.29,514.31C420.97,514.58 421.55,514.97 422.02,515.49C422.49,516 422.86,516.62 423.11,517.35C423.41,518.07 423.54,518.88 423.54,519.8ZM421.24,518.88C421.22,518.43 421.15,518.01 421.01,517.62C420.87,517.23 420.67,516.89 420.41,516.6C420.15,516.31 419.82,516.08 419.43,515.92C419.04,515.75 418.58,515.67 418.05,515.67C417.57,515.67 417.12,515.75 416.69,515.92C416.26,516.09 415.9,516.32 415.59,516.6C415.28,516.89 415.02,517.23 414.82,517.62C414.62,518.01 414.5,518.43 414.47,518.88L421.24,518.88Z" style="fill:white;fill-rule:nonzero;"/>
            <path d="M428.94,514.21C428.97,514.5 429,514.82 429.01,515.18C429.03,515.54 429.03,515.84 429.03,516.08L429.1,516.08C429.24,515.78 429.44,515.49 429.69,515.23C429.94,514.97 430.22,514.73 430.54,514.53C430.86,514.33 431.21,514.17 431.6,514.06C431.98,513.95 432.38,513.89 432.8,513.89C433.54,513.89 434.17,514.01 434.7,514.26C435.23,514.51 435.67,514.84 436.02,515.26C436.37,515.68 436.63,516.16 436.8,516.72C436.97,517.28 437.05,517.88 437.05,518.52L437.05,525.58L434.79,525.58L434.79,519.27C434.79,518.81 434.75,518.37 434.68,517.95C434.61,517.53 434.48,517.17 434.28,516.85C434.09,516.53 433.82,516.27 433.49,516.08C433.16,515.89 432.72,515.79 432.19,515.79C431.29,515.79 430.56,516.13 429.99,516.81C429.42,517.49 429.14,518.4 429.14,519.53L429.14,525.58L426.88,525.58L426.88,516.65C426.88,516.35 426.87,515.95 426.86,515.47C426.84,514.99 426.82,514.57 426.79,514.2L428.94,514.2L428.94,514.21Z" style="fill:white;fill-rule:nonzero;"/>
            <path d="M446.68,516.05L443.66,516.05L443.66,521.96C443.66,522.65 443.79,523.14 444.04,523.43C444.29,523.72 444.7,523.87 445.26,523.87C445.47,523.87 445.69,523.85 445.93,523.8C446.17,523.76 446.39,523.69 446.58,523.6L446.65,525.45C446.38,525.55 446.08,525.62 445.75,525.68C445.42,525.74 445.08,525.76 444.73,525.76C443.66,525.76 442.84,525.46 442.27,524.87C441.7,524.28 441.42,523.39 441.42,522.21L441.42,516.04L439.24,516.04L439.24,514.19L441.42,514.19L441.42,510.93L443.65,510.93L443.65,514.19L446.67,514.19L446.67,516.05L446.68,516.05Z" style="fill:white;fill-rule:nonzero;"/>
            <path d="M456.33,518.21C456.33,517.36 456.07,516.73 455.56,516.33C455.05,515.93 454.37,515.72 453.52,515.72C452.88,515.72 452.28,515.84 451.71,516.09C451.14,516.34 450.67,516.65 450.28,517.04L449.08,515.6C449.64,515.07 450.32,514.66 451.13,514.35C451.94,514.05 452.81,513.89 453.73,513.89C454.55,513.89 455.25,514.01 455.85,514.24C456.45,514.47 456.94,514.79 457.33,515.19C457.71,515.59 458,516.06 458.19,516.61C458.38,517.15 458.48,517.74 458.48,518.36L458.48,523.33C458.48,523.71 458.49,524.12 458.52,524.54C458.54,524.96 458.59,525.31 458.65,525.58L456.61,525.58C456.48,525.04 456.42,524.49 456.42,523.95L456.35,523.95C455.93,524.56 455.41,525.03 454.78,525.37C454.15,525.71 453.4,525.87 452.54,525.87C452.09,525.87 451.62,525.81 451.14,525.69C450.65,525.57 450.21,525.37 449.81,525.1C449.41,524.83 449.08,524.47 448.81,524.02C448.55,523.57 448.41,523.02 448.41,522.36C448.41,521.5 448.64,520.81 449.11,520.31C449.57,519.81 450.18,519.42 450.93,519.16C451.68,518.9 452.53,518.72 453.47,518.64C454.41,518.56 455.37,518.52 456.33,518.52L456.33,518.21ZM455.77,520.16C455.21,520.16 454.63,520.18 454.03,520.23C453.43,520.28 452.89,520.37 452.4,520.52C451.91,520.66 451.51,520.88 451.19,521.17C450.87,521.46 450.71,521.84 450.71,522.32C450.71,522.66 450.78,522.94 450.91,523.16C451.05,523.38 451.23,523.57 451.45,523.71C451.67,523.85 451.92,523.95 452.19,524.01C452.46,524.07 452.74,524.09 453.03,524.09C454.09,524.09 454.9,523.77 455.47,523.14C456.04,522.51 456.32,521.71 456.32,520.75L456.32,520.15L455.77,520.15L455.77,520.16Z" style="fill:white;fill-rule:nonzero;"/>
            <path d="M467.82,516.05L464.8,516.05L464.8,521.96C464.8,522.65 464.93,523.14 465.18,523.43C465.43,523.72 465.84,523.87 466.4,523.87C466.61,523.87 466.83,523.85 467.07,523.8C467.31,523.76 467.53,523.69 467.72,523.6L467.79,525.45C467.52,525.55 467.22,525.62 466.89,525.68C466.56,525.74 466.22,525.76 465.87,525.76C464.8,525.76 463.98,525.46 463.41,524.87C462.84,524.28 462.56,523.39 462.56,522.21L462.56,516.04L460.38,516.04L460.38,514.19L462.56,514.19L462.56,510.93L464.79,510.93L464.79,514.19L467.81,514.19L467.81,516.05L467.82,516.05Z" style="fill:white;fill-rule:nonzero;"/>
            <path d="M473.03,510.1C473.03,510.52 472.88,510.86 472.59,511.13C472.3,511.4 471.94,511.54 471.53,511.54C471.12,511.54 470.77,511.4 470.48,511.12C470.19,510.84 470.05,510.5 470.05,510.1C470.05,509.68 470.19,509.34 470.48,509.06C470.77,508.78 471.11,508.64 471.53,508.64C471.95,508.64 472.3,508.78 472.59,509.06C472.88,509.34 473.03,509.69 473.03,510.1ZM472.67,525.58L470.41,525.58L470.41,514.2L472.67,514.2L472.67,525.58Z" style="fill:white;fill-rule:nonzero;"/>
            <path d="M488.36,519.87C488.36,520.75 488.2,521.56 487.89,522.29C487.58,523.03 487.15,523.66 486.59,524.2C486.03,524.74 485.39,525.15 484.63,525.45C483.87,525.75 483.07,525.89 482.21,525.89C481.35,525.89 480.54,525.74 479.79,525.45C479.04,525.15 478.39,524.74 477.85,524.2C477.31,523.66 476.88,523.03 476.57,522.29C476.26,521.55 476.1,520.75 476.1,519.87C476.1,518.99 476.26,518.19 476.57,517.46C476.88,516.73 477.31,516.1 477.85,515.58C478.39,515.05 479.04,514.64 479.79,514.34C480.54,514.04 481.35,513.9 482.21,513.9C483.07,513.9 483.88,514.05 484.63,514.34C485.38,514.64 486.03,515.05 486.59,515.58C487.14,516.11 487.57,516.74 487.89,517.46C488.21,518.19 488.36,518.99 488.36,519.87ZM486.01,519.88C486.01,519.34 485.93,518.82 485.76,518.32C485.59,517.83 485.35,517.39 485.03,517.02C484.71,516.65 484.31,516.35 483.84,516.12C483.37,515.9 482.82,515.79 482.21,515.79C481.6,515.79 481.06,515.9 480.59,516.12C480.12,516.34 479.72,516.64 479.4,517.02C479.08,517.4 478.83,517.83 478.67,518.32C478.5,518.82 478.42,519.33 478.42,519.88C478.42,520.42 478.5,520.94 478.67,521.44C478.84,521.94 479.08,522.37 479.4,522.76C479.72,523.14 480.12,523.45 480.59,523.67C481.06,523.89 481.61,524 482.21,524C482.82,524 483.36,523.89 483.84,523.67C484.31,523.45 484.71,523.14 485.03,522.76C485.35,522.38 485.6,521.94 485.76,521.44C485.93,520.94 486.01,520.42 486.01,519.88Z" style="fill:white;fill-rule:nonzero;"/>
            <path d="M493.76,514.21C493.79,514.5 493.82,514.82 493.83,515.18C493.85,515.54 493.85,515.84 493.85,516.08L493.92,516.08C494.06,515.78 494.26,515.49 494.51,515.23C494.76,514.97 495.04,514.73 495.36,514.53C495.68,514.33 496.03,514.17 496.42,514.06C496.8,513.95 497.2,513.89 497.62,513.89C498.36,513.89 498.99,514.01 499.52,514.26C500.05,514.51 500.49,514.84 500.84,515.26C501.19,515.68 501.45,516.16 501.62,516.72C501.79,517.28 501.87,517.88 501.87,518.52L501.87,525.58L499.61,525.58L499.61,519.27C499.61,518.81 499.57,518.37 499.5,517.95C499.43,517.53 499.3,517.17 499.1,516.85C498.91,516.53 498.64,516.27 498.31,516.08C497.98,515.89 497.54,515.79 497.01,515.79C496.11,515.79 495.38,516.13 494.81,516.81C494.24,517.49 493.96,518.4 493.96,519.53L493.96,525.58L491.7,525.58L491.7,516.65C491.7,516.35 491.69,515.95 491.68,515.47C491.66,514.99 491.64,514.57 491.61,514.2L493.76,514.2L493.76,514.21Z" style="fill:white;fill-rule:nonzero;"/>
            <path d="M518.32,517.08C518.06,516.66 517.7,516.32 517.24,516.06C516.78,515.8 516.26,515.66 515.68,515.66C515.42,515.66 515.17,515.69 514.91,515.74C514.65,515.8 514.43,515.88 514.23,516C514.03,516.12 513.87,516.27 513.75,516.46C513.63,516.64 513.57,516.87 513.57,517.14C513.57,517.62 513.79,517.98 514.22,518.21C514.65,518.44 515.3,518.65 516.16,518.85C516.7,518.98 517.21,519.13 517.67,519.31C518.13,519.49 518.54,519.71 518.88,519.97C519.22,520.23 519.49,520.55 519.68,520.92C519.87,521.29 519.97,521.72 519.97,522.22C519.97,522.89 519.84,523.46 519.59,523.92C519.33,524.38 518.99,524.76 518.57,525.06C518.15,525.36 517.66,525.57 517.12,525.7C516.58,525.83 516.02,525.89 515.44,525.89C514.58,525.89 513.73,525.72 512.91,525.39C512.09,525.06 511.4,524.54 510.86,523.85L512.47,522.48C512.77,522.93 513.19,523.3 513.73,523.61C514.27,523.92 514.85,524.07 515.49,524.07C515.78,524.07 516.05,524.04 516.32,523.99C516.58,523.93 516.82,523.84 517.04,523.71C517.26,523.58 517.43,523.41 517.56,523.21C517.69,523 517.75,522.74 517.75,522.42C517.75,521.89 517.5,521.5 516.99,521.24C516.48,520.98 515.75,520.74 514.77,520.52C514.39,520.42 514,520.31 513.61,520.17C513.22,520.03 512.86,519.85 512.54,519.61C512.22,519.37 511.96,519.07 511.76,518.71C511.56,518.35 511.46,517.91 511.46,517.38C511.46,516.77 511.58,516.25 511.83,515.81C512.08,515.37 512.4,515.01 512.8,514.73C513.2,514.45 513.66,514.24 514.17,514.11C514.68,513.97 515.21,513.91 515.75,513.91C516.57,513.91 517.35,514.07 518.11,514.39C518.87,514.71 519.46,515.17 519.87,515.78L518.32,517.08Z" style="fill:white;fill-rule:nonzero;"/>
            <path d="M527.39,523.13L527.44,523.13L530.58,514.2L532.98,514.2L527.46,528.26C527.27,528.74 527.06,529.17 526.84,529.54C526.62,529.92 526.35,530.24 526.05,530.5C525.75,530.76 525.39,530.97 524.98,531.11C524.57,531.25 524.09,531.33 523.53,531.33C523.29,531.33 523.05,531.32 522.8,531.29C522.55,531.27 522.3,531.22 522.04,531.16L522.26,529.17C522.64,529.3 523.02,529.36 523.39,529.36C523.98,529.36 524.42,529.2 524.71,528.87C525,528.54 525.26,528.07 525.5,527.47L526.22,525.57L521.35,514.19L523.87,514.19L527.39,523.13Z" style="fill:white;fill-rule:nonzero;"/>
            <path d="M541.55,517.08C541.29,516.66 540.93,516.32 540.47,516.06C540.01,515.8 539.49,515.66 538.91,515.66C538.65,515.66 538.4,515.69 538.14,515.74C537.88,515.8 537.66,515.88 537.46,516C537.26,516.12 537.1,516.27 536.98,516.46C536.86,516.64 536.8,516.87 536.8,517.14C536.8,517.62 537.02,517.98 537.45,518.21C537.88,518.44 538.53,518.65 539.39,518.85C539.93,518.98 540.44,519.13 540.9,519.31C541.36,519.49 541.77,519.71 542.11,519.97C542.45,520.23 542.72,520.55 542.91,520.92C543.1,521.29 543.2,521.72 543.2,522.22C543.2,522.89 543.07,523.46 542.82,523.92C542.56,524.38 542.22,524.76 541.8,525.06C541.38,525.36 540.89,525.57 540.35,525.7C539.81,525.83 539.25,525.89 538.67,525.89C537.81,525.89 536.96,525.72 536.14,525.39C535.32,525.06 534.63,524.54 534.09,523.85L535.7,522.48C536,522.93 536.42,523.3 536.96,523.61C537.5,523.92 538.08,524.07 538.72,524.07C539.01,524.07 539.28,524.04 539.55,523.99C539.81,523.93 540.05,523.84 540.27,523.71C540.49,523.58 540.66,523.41 540.79,523.21C540.92,523 540.98,522.74 540.98,522.42C540.98,521.89 540.73,521.5 540.22,521.24C539.71,520.98 538.98,520.74 538,520.52C537.62,520.42 537.23,520.31 536.84,520.17C536.45,520.03 536.09,519.85 535.77,519.61C535.45,519.37 535.19,519.07 534.99,518.71C534.79,518.35 534.69,517.91 534.69,517.38C534.69,516.77 534.81,516.25 535.06,515.81C535.31,515.37 535.63,515.01 536.03,514.73C536.43,514.45 536.89,514.24 537.4,514.11C537.91,513.97 538.44,513.91 538.98,513.91C539.8,513.91 540.58,514.07 541.34,514.39C542.1,514.71 542.69,515.17 543.1,515.78L541.55,517.08Z" style="fill:white;fill-rule:nonzero;"/>
            <path d="M551.87,516.05L548.85,516.05L548.85,521.96C548.85,522.65 548.98,523.14 549.23,523.43C549.48,523.72 549.89,523.87 550.45,523.87C550.66,523.87 550.88,523.85 551.12,523.8C551.36,523.76 551.58,523.69 551.77,523.6L551.84,525.45C551.57,525.55 551.27,525.62 550.94,525.68C550.61,525.74 550.27,525.76 549.92,525.76C548.85,525.76 548.03,525.46 547.46,524.87C546.89,524.28 546.61,523.39 546.61,522.21L546.61,516.04L544.43,516.04L544.43,514.19L546.61,514.19L546.61,510.93L548.84,510.93L548.84,514.19L551.86,514.19L551.86,516.05L551.87,516.05Z" style="fill:white;fill-rule:nonzero;"/>
            <path d="M565.07,519.8L565.07,520.18C565.07,520.31 565.06,520.44 565.05,520.56L556,520.56C556.02,521.04 556.12,521.49 556.32,521.91C556.52,522.33 556.79,522.7 557.12,523.01C557.46,523.32 557.84,523.56 558.28,523.74C558.72,523.92 559.19,524 559.68,524C560.45,524 561.11,523.83 561.67,523.5C562.23,523.16 562.67,522.76 562.99,522.28L564.57,523.55C563.96,524.36 563.25,524.95 562.42,525.33C561.6,525.71 560.68,525.9 559.67,525.9C558.81,525.9 558.01,525.76 557.27,525.47C556.53,525.18 555.9,524.78 555.37,524.26C554.84,523.74 554.43,523.11 554.12,522.38C553.82,521.64 553.66,520.83 553.66,519.93C553.66,519.05 553.81,518.24 554.1,517.49C554.4,516.75 554.81,516.11 555.34,515.58C555.87,515.05 556.49,514.64 557.22,514.34C557.94,514.04 558.72,513.9 559.55,513.9C560.38,513.9 561.14,514.04 561.82,514.31C562.5,514.58 563.08,514.97 563.55,515.49C564.02,516 564.39,516.62 564.64,517.35C564.94,518.07 565.07,518.88 565.07,519.8ZM562.76,518.88C562.74,518.43 562.67,518.01 562.53,517.62C562.39,517.23 562.19,516.89 561.93,516.6C561.67,516.31 561.34,516.08 560.95,515.92C560.56,515.75 560.1,515.67 559.57,515.67C559.09,515.67 558.64,515.75 558.21,515.92C557.78,516.09 557.42,516.32 557.11,516.6C556.8,516.89 556.54,517.23 556.34,517.62C556.14,518.01 556.02,518.43 555.99,518.88L562.76,518.88Z" style="fill:white;fill-rule:nonzero;"/>
            <path d="M572.01,514.53C572.64,514.11 573.39,513.89 574.25,513.89C575.02,513.89 575.71,514.07 576.33,514.42C576.95,514.77 577.43,515.36 577.78,516.17C578.16,515.43 578.7,514.87 579.39,514.48C580.08,514.09 580.83,513.89 581.65,513.89C582.39,513.89 583.02,514.01 583.55,514.26C584.08,514.51 584.52,514.84 584.87,515.26C585.22,515.68 585.48,516.16 585.65,516.72C585.82,517.28 585.9,517.88 585.9,518.52L585.9,525.58L583.64,525.58L583.64,519.27C583.64,518.81 583.6,518.37 583.52,517.95C583.44,517.53 583.3,517.17 583.11,516.85C582.92,516.53 582.66,516.27 582.34,516.08C582.02,515.89 581.61,515.79 581.12,515.79C580.61,515.79 580.17,515.9 579.8,516.11C579.43,516.33 579.13,516.61 578.9,516.95C578.67,517.29 578.5,517.68 578.4,518.11C578.3,518.54 578.24,518.98 578.24,519.43L578.24,525.57L575.98,525.57L575.98,518.8C575.98,518.35 575.94,517.94 575.86,517.58C575.78,517.22 575.64,516.9 575.45,516.63C575.26,516.37 575.01,516.16 574.71,516.01C574.41,515.86 574.03,515.78 573.58,515.78C572.75,515.78 572.06,516.12 571.5,516.8C570.95,517.48 570.67,518.39 570.67,519.52L570.67,525.57L568.41,525.57L568.41,516.64C568.41,516.34 568.4,515.94 568.39,515.46C568.37,514.98 568.35,514.56 568.32,514.19L570.46,514.19C570.49,514.48 570.52,514.8 570.53,515.16C570.55,515.52 570.55,515.82 570.55,516.06L570.62,516.06C570.92,515.47 571.38,514.95 572.01,514.53Z" style="fill:white;fill-rule:nonzero;"/>
        </g>
        <g>
            <path d="M456.89,467.5C456.89,476.7 470.61,483.48 478.06,486.34C488,490.15 498.59,491.86 509.2,492.05C528.06,492.38 549.87,489.25 565.84,478.45C588.02,463.45 602.67,437.97 608.1,412.09C610.76,399.43 611.02,386.31 608.65,373.59C605.99,359.34 598.75,346.36 589.99,334.98C583.74,326.87 576.46,319.64 568.94,312.72C562.68,306.96 554.49,297.42 545.79,304.17C547.91,308.73 550.02,313.29 552.14,317.85C574.01,293.86 583.27,261.05 573.37,229.77C565.39,204.55 548.63,182.85 526.66,168.2C504.7,153.56 477.62,146.11 451.27,147.52C423.24,149.03 396.8,160.1 374.89,177.46C349.44,197.62 331.12,226.08 323.36,257.58C328.31,254.08 333.27,250.58 338.22,247.08C321.41,228.47 295.71,221.42 271.34,225.9C244.58,230.82 222.51,250.97 210.82,274.97C203.8,289.39 199.9,304.83 199.69,320.89C204.72,316.56 209.75,312.22 214.78,307.89C195.52,283.65 160.71,284.68 134.87,296.07C104.55,309.44 82.1,339.05 76.84,371.7C74.06,388.96 76.21,406.69 83.19,422.71C87.85,433.4 102.18,417.04 98.8,409.29C88.82,386.38 89.24,359.29 104.36,338.78C118.05,320.21 142.33,307.3 165.71,308.56C178.53,309.26 192.66,314.61 200.82,324.88C207.14,332.84 215.84,317.01 215.91,311.88C216.24,286.23 229.67,260.96 253.7,250.25C276.82,239.95 307.12,245.1 324.26,264.08C330.36,270.83 337.9,258.56 339.12,253.58C350.09,209.08 391.22,174.66 436.99,168.72C483.45,162.68 532.17,187.86 552.66,230.19C558.45,242.16 562.58,256.17 561.28,269.56C559.92,283.56 553.2,295.91 543.85,306.16C541,309.29 538.5,315.54 540.6,319.61C542.75,323.78 547.17,322.19 550.2,319.84C550.26,319.79 550.33,319.74 550.39,319.69C549.02,320.45 547.65,321.21 546.27,321.97C545.25,322.34 543.41,321.01 545.62,322.45C546.65,323.12 547.66,323.76 548.65,324.49C551.68,326.74 554.52,329.28 557.27,331.85C562.19,336.45 567.07,341.22 571.47,346.34C586.47,363.78 596.24,384.2 593.71,407.62C591.59,427.32 582.7,445.8 567.44,458.32C566.72,458.91 565.98,459.48 565.24,460.05C561.8,462.75 566.64,459.28 564.15,460.82C562.9,461.59 561.63,462.32 560.33,462.99C556.8,464.8 554.2,465.73 550.23,466.93C542.25,469.34 533.91,470.85 525.59,471.31C507.47,472.32 484.72,470.14 471.97,455.52C472.35,456.85 472.73,458.18 473.1,459.51L473.1,458.51C473.1,453.68 468.96,451.51 464.83,453.74C460.17,456.25 456.89,462.25 456.89,467.5Z" style="fill:white;fill-rule:nonzero;"/>
        </g>
        <g>
            <path d="M463.87,225.34C449.97,271.77 437.73,318.76 425.07,365.54C419.1,387.6 413.13,409.65 407.4,431.78C404.87,441.57 402.37,451.34 401.82,461.49C401.38,469.6 402.44,479.33 408.44,485.39C417.54,494.57 428.67,487.69 435.95,479.93C443.79,471.57 448.28,460.96 453.05,450.71C458.62,438.74 464.41,426.87 470.04,414.93C481.72,390.17 493.49,365.46 505.13,340.68C506.82,337.07 506.76,330.53 501.87,329.72C496.61,328.85 492.64,335.6 490.87,339.35C482.87,356.3 487.62,372.22 497.46,387.14C506.9,401.44 518.39,414.19 520.03,432.05C521.34,446.35 516.07,456.47 503.74,463.68C498.27,466.88 494.39,467.71 488.21,465.46C482.11,463.23 476.12,459.57 471.98,454.52C465.57,446.69 452.5,464.77 458.02,471.52C465.11,480.18 477.49,487.75 489,487.53C501.63,487.29 514.92,475.91 522.59,466.74C532.54,454.84 537.39,439.36 536.3,423.9C535.19,408.09 528.65,394.29 519.52,381.57C514.67,374.82 509.51,368.19 505.93,360.64C502.58,353.57 501.75,347.83 505.13,340.69C500.38,340.25 495.62,339.8 490.87,339.36C481.31,359.71 471.61,380.01 462.02,400.35C453.03,419.42 444.55,438.89 434.89,457.63C432.67,461.93 427.51,473.34 421.59,467.57C416.97,463.07 417.62,454.74 418.44,448.97C419.56,441.1 421.73,433.39 423.72,425.71C435.95,378.67 448.84,331.8 461.76,284.95C465.11,272.79 468.48,260.63 471.89,248.49C472.25,247.2 472.62,245.9 472.98,244.61C473.19,243.86 474.3,239.96 473.46,242.91C474.08,240.74 474.69,238.58 475.31,236.41C476.24,233.17 477.17,229.93 478.14,226.69C479.26,222.94 480.17,216.61 474.88,215.73C470.07,214.92 465.03,221.45 463.87,225.34Z" style="fill:white;fill-rule:nonzero;"/>
        </g>
    </g>
</svg>
